<svg width="30" height="26" viewBox="0 0 30 26" fill="none" xmlns="http://www.w3.org/2000/svg">
<path d="M26.25 3.25V26H3.75V3.25H11.25C11.25 2.80143 11.3477 2.38249 11.543 1.99316C11.7383 1.60384 12.0068 1.25684 12.3486 0.952148C12.6904 0.647461 13.0859 0.414714 13.5352 0.253906C13.9844 0.093099 14.4727 0.00846354 15 0C15.5176 0 16.001 0.0846354 16.4502 0.253906C16.8994 0.423177 17.2998 0.655924 17.6514 0.952148C18.0029 1.24837 18.2715 1.59115 18.457 1.98047C18.6426 2.36979 18.7402 2.79297 18.75 3.25H26.25ZM9.375 4.875V6.5H20.625V4.875H16.875V3.25C16.875 3.02148 16.8262 2.8099 16.7285 2.61523C16.6309 2.42057 16.499 2.2513 16.333 2.10742C16.167 1.96354 15.9668 1.84505 15.7324 1.75195C15.498 1.65885 15.2539 1.61654 15 1.625C14.7363 1.625 14.4922 1.66732 14.2676 1.75195C14.043 1.83659 13.8477 1.95085 13.6816 2.09473C13.5156 2.23861 13.3789 2.41211 13.2715 2.61523C13.1641 2.81836 13.1152 3.02995 13.125 3.25V4.875H9.375ZM24.375 4.875H22.5V8.125H7.5V4.875H5.625V24.375H24.375V4.875ZM18.4424 9.12793C18.8525 9.12793 19.2334 9.19141 19.585 9.31836C19.9365 9.44531 20.249 9.62305 20.5225 9.85156C20.7959 10.0801 21.001 10.3467 21.1377 10.6514C21.2744 10.9561 21.3525 11.2861 21.3721 11.6416C21.3721 11.9717 21.2988 12.2933 21.1523 12.6064C21.0059 12.9196 20.7959 13.1947 20.5225 13.4316L12.8174 20.1729L7.57324 21.0361L8.67188 16.5801L16.377 9.85156C16.6504 9.61458 16.9678 9.43685 17.3291 9.31836C17.6904 9.19987 18.0615 9.13639 18.4424 9.12793ZM19.1895 12.2891C19.3945 12.0944 19.4971 11.8786 19.4971 11.6416C19.4971 11.3792 19.3994 11.1676 19.2041 11.0068C19.0088 10.846 18.7549 10.7614 18.4424 10.7529C18.3057 10.7529 18.1738 10.7699 18.0469 10.8037C17.9199 10.8376 17.8076 10.901 17.71 10.9941L10.4004 17.3799L10.0049 18.9795L11.8945 18.6621L19.1895 12.2891Z" fill="#737373"/>
</svg>
