<svg width="40" height="29" viewBox="0 0 40 29" fill="none" xmlns="http://www.w3.org/2000/svg">
<mask id="mask0_1131_1015" style="mask-type:luminance" maskUnits="userSpaceOnUse" x="0" y="0" width="40" height="29">
<path d="M0 3C0 1.34315 1.34315 0 3 0H37C38.6569 0 40 1.34315 40 3V26C40 27.6569 38.6569 29 37 29H3C1.34315 29 0 27.6569 0 26V3Z" fill="white"/>
</mask>
<g mask="url(#mask0_1131_1015)">
<path fill-rule="evenodd" clip-rule="evenodd" d="M0 0V29H40V0H0Z" fill="#2E42A5"/>
<mask id="mask1_1131_1015" style="mask-type:luminance" maskUnits="userSpaceOnUse" x="0" y="0" width="40" height="29">
<path fill-rule="evenodd" clip-rule="evenodd" d="M0 0V29H40V0H0Z" fill="white"/>
</mask>
<g mask="url(#mask1_1131_1015)">
<mask id="mask2_1131_1015" style="mask-type:luminance" maskUnits="userSpaceOnUse" x="0" y="0" width="40" height="29">
<path d="M0 3C0 1.34315 1.34315 0 3 0H37C38.6569 0 40 1.34315 40 3V26C40 27.6569 38.6569 29 37 29H3C1.34315 29 0 27.6569 0 26V3Z" fill="white"/>
</mask>
<g mask="url(#mask2_1131_1015)">
<path d="M-4.45404 26.9276L4.34807 30.5261L40.1996 3.91183L44.8425 -1.43562L35.4299 -2.63834L20.8069 8.83052L9.03695 16.5578L-4.45404 26.9276Z" fill="white"/>
<path d="M-3.24902 29.4493L1.23525 31.5376L43.1753 -1.93196H36.8788L-3.24902 29.4493Z" fill="#F50100"/>
<path d="M44.4539 26.9276L35.6518 30.5261L-0.19974 3.91183L-4.84265 -1.43562L4.56994 -2.63834L19.1929 8.83052L30.9629 16.5578L44.4539 26.9276Z" fill="white"/>
<path d="M44.1536 28.7372L39.6694 30.8254L21.8109 16.4954L16.5162 14.8943L-5.28936 -1.41721H1.00708L22.8004 14.5072L28.5892 16.427L44.1536 28.7372Z" fill="#F50100"/>
<mask id="path-9-inside-1_1131_1015" fill="white">
<path fill-rule="evenodd" clip-rule="evenodd" d="M18.2777 -2.41675C16.6209 -2.41675 15.2777 -1.0736 15.2777 0.58325V9.66643H0.534302C-1.12255 9.66643 -2.4657 11.0096 -2.4657 12.6664V16.3331C-2.4657 17.99 -1.12255 19.3331 0.534302 19.3331H15.2777V28.4166C15.2777 30.0734 16.6209 31.4166 18.2777 31.4166H21.7222C23.379 31.4166 24.7222 30.0734 24.7222 28.4166V19.3331H39.5343C41.1912 19.3331 42.5343 17.99 42.5343 16.3331V12.6664C42.5343 11.0096 41.1912 9.66643 39.5343 9.66643H24.7222V0.583252C24.7222 -1.0736 23.379 -2.41675 21.7222 -2.41675H18.2777Z"/>
</mask>
<path fill-rule="evenodd" clip-rule="evenodd" d="M18.2777 -2.41675C16.6209 -2.41675 15.2777 -1.0736 15.2777 0.58325V9.66643H0.534302C-1.12255 9.66643 -2.4657 11.0096 -2.4657 12.6664V16.3331C-2.4657 17.99 -1.12255 19.3331 0.534302 19.3331H15.2777V28.4166C15.2777 30.0734 16.6209 31.4166 18.2777 31.4166H21.7222C23.379 31.4166 24.7222 30.0734 24.7222 28.4166V19.3331H39.5343C41.1912 19.3331 42.5343 17.99 42.5343 16.3331V12.6664C42.5343 11.0096 41.1912 9.66643 39.5343 9.66643H24.7222V0.583252C24.7222 -1.0736 23.379 -2.41675 21.7222 -2.41675H18.2777Z" fill="#F50100"/>
<path d="M15.2777 9.66643V10.6664H16.2777V9.66643H15.2777ZM15.2777 19.3331H16.2777V18.3331H15.2777V19.3331ZM24.7222 19.3331V18.3331H23.7222V19.3331H24.7222ZM24.7222 9.66643H23.7222V10.6664H24.7222V9.66643ZM16.2777 0.58325C16.2777 -0.521319 17.1731 -1.41675 18.2777 -1.41675V-3.41675C16.0686 -3.41675 14.2777 -1.62589 14.2777 0.58325H16.2777ZM16.2777 9.66643V0.58325H14.2777V9.66643H16.2777ZM0.534302 10.6664H15.2777V8.66643H0.534302V10.6664ZM-1.4657 12.6664C-1.4657 11.5619 -0.570267 10.6664 0.534302 10.6664V8.66643C-1.67484 8.66643 -3.4657 10.4573 -3.4657 12.6664H-1.4657ZM-1.4657 16.3331V12.6664H-3.4657V16.3331H-1.4657ZM0.534302 18.3331C-0.570268 18.3331 -1.4657 17.4377 -1.4657 16.3331H-3.4657C-3.4657 18.5422 -1.67484 20.3331 0.534302 20.3331V18.3331ZM15.2777 18.3331H0.534302V20.3331H15.2777V18.3331ZM16.2777 28.4166V19.3331H14.2777V28.4166H16.2777ZM18.2777 30.4166C17.1731 30.4166 16.2777 29.5212 16.2777 28.4166H14.2777C14.2777 30.6257 16.0686 32.4166 18.2777 32.4166V30.4166ZM21.7222 30.4166H18.2777V32.4166H21.7222V30.4166ZM23.7222 28.4166C23.7222 29.5212 22.8267 30.4166 21.7222 30.4166V32.4166C23.9313 32.4166 25.7222 30.6257 25.7222 28.4166H23.7222ZM23.7222 19.3331V28.4166H25.7222V19.3331H23.7222ZM39.5343 18.3331H24.7222V20.3331H39.5343V18.3331ZM41.5343 16.3331C41.5343 17.4377 40.6389 18.3331 39.5343 18.3331V20.3331C41.7434 20.3331 43.5343 18.5422 43.5343 16.3331H41.5343ZM41.5343 12.6664V16.3331H43.5343V12.6664H41.5343ZM39.5343 10.6664C40.6389 10.6664 41.5343 11.5619 41.5343 12.6664H43.5343C43.5343 10.4573 41.7434 8.66643 39.5343 8.66643V10.6664ZM24.7222 10.6664H39.5343V8.66643H24.7222V10.6664ZM23.7222 0.583252V9.66643H25.7222V0.583252H23.7222ZM21.7222 -1.41675C22.8267 -1.41675 23.7222 -0.521318 23.7222 0.583252H25.7222C25.7222 -1.62589 23.9313 -3.41675 21.7222 -3.41675V-1.41675ZM18.2777 -1.41675H21.7222V-3.41675H18.2777V-1.41675Z" fill="white" mask="url(#path-9-inside-1_1131_1015)"/>
</g>
</g>
</g>
</svg>
