<svg width="40" height="40" viewBox="0 0 40 40" fill="none" xmlns="http://www.w3.org/2000/svg">
<path d="M23.3333 3.3335H9.99999C9.11593 3.3335 8.26809 3.68469 7.64297 4.30981C7.01785 4.93493 6.66666 5.78277 6.66666 6.66683V33.3335C6.66666 34.2176 7.01785 35.0654 7.64297 35.6905C8.26809 36.3156 9.11593 36.6668 9.99999 36.6668H30C30.884 36.6668 31.7319 36.3156 32.357 35.6905C32.9821 35.0654 33.3333 34.2176 33.3333 33.3335V13.3335L23.3333 3.3335ZM15.3983 27.4102C15.3983 29.3302 14.48 30.0002 13.0017 30.0002C12.6517 30.0002 12.1917 29.9402 11.8933 29.8385L12.0617 28.6102C12.2733 28.6802 12.5433 28.7302 12.8433 28.7302C13.4833 28.7302 13.8817 28.4402 13.8817 27.3902V23.1518H15.4L15.3983 27.4102ZM20.8883 26.8018C20.3667 27.2902 19.6 27.5118 18.7 27.5118C18.5 27.5118 18.32 27.5002 18.18 27.4802V29.8885H16.67V23.2418C17.3517 23.1392 18.0407 23.0929 18.73 23.1035C19.6683 23.1035 20.3383 23.2818 20.7867 23.6418C21.2183 23.9818 21.5083 24.5418 21.5083 25.2018C21.5083 25.8618 21.2867 26.4218 20.8883 26.8018ZM28.1067 29.5802C27.64 29.7402 26.7483 29.9602 25.8583 29.9602C24.63 29.9602 23.74 29.6502 23.12 29.0502C22.5017 28.4702 22.1617 27.5918 22.17 26.6018C22.1817 24.3618 23.8083 23.0835 26.0183 23.0835C26.8867 23.0835 27.5583 23.2552 27.8867 23.4135L27.5683 24.6318C27.1983 24.4718 26.74 24.3418 26 24.3418C24.7317 24.3418 23.77 25.0618 23.77 26.5218C23.77 27.9102 24.6417 28.7302 25.8883 28.7302C26.24 28.7302 26.5183 28.6902 26.64 28.6285V27.2185H25.6V26.0302H28.1067V29.5802ZM23.3333 15.0002H21.6667V6.66683L30 15.0002H23.3333Z" fill="#8F4049"/>
<path d="M18.8083 24.2534C18.4983 24.2534 18.2883 24.2834 18.18 24.3134V26.3018C18.3083 26.3318 18.47 26.3401 18.6917 26.3401C19.4983 26.3401 19.9983 25.9301 19.9983 25.2418C19.9983 24.6218 19.57 24.2534 18.8083 24.2534Z" fill="#2C2728"/>
</svg>
