<svg width="20" height="20" viewBox="0 0 20 20" fill="none" xmlns="http://www.w3.org/2000/svg">
<path fill-rule="evenodd" clip-rule="evenodd" d="M16.25 14.4588C16.25 15.45 15.45 16.25 14.4588 16.25H5.54125C4.55 16.25 3.75 15.45 3.75 14.4588V5.54125C3.75 4.55 4.55 3.75 5.54125 3.75H7.5V3.13125C7.50101 2.98419 7.55283 2.84199 7.64669 2.72877C7.74055 2.61555 7.87067 2.53826 8.015 2.51L8.125 2.5C8.47 2.5 8.75 2.7675 8.75 3.13125V3.75H11.25V3.13125C11.251 2.98419 11.3028 2.84199 11.3967 2.72877C11.4906 2.61555 11.6207 2.53826 11.765 2.51L11.875 2.5C12.22 2.5 12.5 2.7675 12.5 3.13125V3.75H14.4588C15.45 3.75 16.25 4.55 16.25 5.54125V14.4588ZM5 7.5V14.1625C5 14.625 5.375 15 5.8375 15H14.1625C14.625 15 15 14.625 15 14.1625V7.5H5ZM6.875 12.5C7.18125 12.5 7.4375 12.7287 7.49 13.015L7.5 13.125C7.5 13.4312 7.27125 13.6875 6.985 13.74L6.875 13.75C6.70974 13.7484 6.55172 13.682 6.43486 13.5651C6.318 13.4483 6.25163 13.2903 6.25 13.125C6.25 12.8188 6.47875 12.5625 6.765 12.51L6.875 12.5ZM10 12.5C10.3063 12.5 10.5625 12.7287 10.615 13.015L10.625 13.125C10.625 13.4312 10.3963 13.6875 10.11 13.74L10 13.75C9.83474 13.7484 9.67672 13.682 9.55986 13.5651C9.443 13.4483 9.37663 13.2903 9.375 13.125C9.375 12.8188 9.60375 12.5625 9.89 12.51L10 12.5ZM13.125 12.5C13.4312 12.5 13.6875 12.7287 13.74 13.015L13.75 13.125C13.75 13.4312 13.5213 13.6875 13.235 13.74L13.125 13.75C12.9597 13.7484 12.8017 13.682 12.6849 13.5651C12.568 13.4483 12.5016 13.2903 12.5 13.125C12.5 12.8188 12.7287 12.5625 13.015 12.51L13.125 12.5ZM6.875 10.625C7.18125 10.625 7.4375 10.8537 7.49 11.14L7.5 11.25C7.5 11.5562 7.27125 11.8125 6.985 11.865L6.875 11.875C6.70974 11.8734 6.55172 11.807 6.43486 11.6901C6.318 11.5733 6.25163 11.4153 6.25 11.25C6.25 10.9438 6.47875 10.6875 6.765 10.635L6.875 10.625ZM10 10.625C10.3063 10.625 10.5625 10.8537 10.615 11.14L10.625 11.25C10.625 11.5562 10.3963 11.8125 10.11 11.865L10 11.875C9.83474 11.8734 9.67672 11.807 9.55986 11.6901C9.443 11.5733 9.37663 11.4153 9.375 11.25C9.375 10.9438 9.60375 10.6875 9.89 10.635L10 10.625ZM13.125 10.625C13.4312 10.625 13.6875 10.8537 13.74 11.14L13.75 11.25C13.75 11.5562 13.5213 11.8125 13.235 11.865L13.125 11.875C12.9597 11.8734 12.8017 11.807 12.6849 11.6901C12.568 11.5733 12.5016 11.4153 12.5 11.25C12.5 10.9438 12.7287 10.6875 13.015 10.635L13.125 10.625ZM6.875 8.75C7.18125 8.75 7.4375 8.97875 7.49 9.265L7.5 9.375C7.5 9.68125 7.27125 9.9375 6.985 9.99L6.875 10C6.70974 9.99837 6.55172 9.932 6.43486 9.81514C6.318 9.69828 6.25163 9.54026 6.25 9.375C6.25 9.06875 6.47875 8.8125 6.765 8.76L6.875 8.75ZM10 8.75C10.3063 8.75 10.5625 8.97875 10.615 9.265L10.625 9.375C10.625 9.68125 10.3963 9.9375 10.11 9.99L10 10C9.83474 9.99837 9.67672 9.932 9.55986 9.81514C9.443 9.69828 9.37663 9.54026 9.375 9.375C9.375 9.06875 9.60375 8.8125 9.89 8.76L10 8.75ZM13.125 8.75C13.4312 8.75 13.6875 8.97875 13.74 9.265L13.75 9.375C13.75 9.68125 13.5213 9.9375 13.235 9.99L13.125 10C12.9597 9.99837 12.8017 9.932 12.6849 9.81514C12.568 9.69828 12.5016 9.54026 12.5 9.375C12.5 9.06875 12.7287 8.8125 13.015 8.76L13.125 8.75ZM5 6.25H15V5.8375C15 5.375 14.625 5 14.1625 5H5.8375C5.375 5 5 5.375 5 5.8375V6.25Z" fill="#D9D9D9"/>
</svg>
