<svg width="634" height="325" viewBox="0 0 634 325" fill="none" xmlns="http://www.w3.org/2000/svg">
<g clip-path="url(#clip0_706_9446)">
<rect width="634" height="325" rx="16.5784" fill="white"/>
<rect x="43" y="8" width="1" height="188" fill="#F9F9F9"/>
<rect x="100" y="8" width="1" height="188" fill="#F9F9F9"/>
<rect x="157" y="8" width="1" height="188" fill="#F9F9F9"/>
<rect x="214" y="8" width="1" height="188" fill="#F9F9F9"/>
<rect x="271" y="8" width="1" height="188" fill="#F9F9F9"/>
<rect x="328" y="8" width="1" height="188" fill="#F9F9F9"/>
<rect x="385" y="8" width="1" height="188" fill="#F9F9F9"/>
<rect x="442" y="8" width="1" height="188" fill="#F9F9F9"/>
<path d="M41.0067 139.223C32.2271 152.684 21.3441 155.114 17 154.647V189H635V118.19C606.878 118.19 600.705 81.0324 570.525 89.4454C544.785 96.6208 554.063 117.489 521.826 121.696C489.588 125.902 499.877 145.533 474.498 149.038C449.12 152.543 447.748 145.533 434.03 138.522C420.312 131.511 412.081 132.212 401.107 132.913C390.132 133.614 368.869 148.337 354.465 146.935C340.061 145.533 333.888 129.407 327.715 110.478C321.542 91.5487 316.054 80.3313 313.997 76.8258L313.944 76.7359C311.857 73.1788 307.004 64.9073 291.362 64.9073C275.586 64.9073 257.067 87.3422 238.547 81.7335C220.028 76.1248 209.739 43.1735 203.566 35.4615C197.393 27.7495 191.22 24.9452 179.559 26.3474C167.899 27.7495 152.809 50.1844 150.065 52.9887C147.322 55.7931 141.835 62.1029 128.802 62.1029C115.77 62.1029 108.911 75.4236 103.424 85.2388C97.9367 95.054 92.4495 104.869 85.5905 109.777C78.7314 114.685 78.0455 112.581 69.1287 113.983C60.212 115.386 51.9811 122.396 41.0067 139.223Z" fill="url(#paint0_linear_706_9446)"/>
<path d="M17 154.947C21.3441 155.415 32.2271 152.979 41.0067 139.487C51.9811 122.622 60.212 115.594 69.1287 114.189C78.0455 112.783 78.7314 114.892 85.5905 109.973C92.4495 105.053 97.9367 95.2153 103.424 85.3771C108.911 75.539 115.77 62.1872 128.802 62.1872C141.835 62.1872 147.322 55.8627 150.065 53.0518C152.809 50.2409 167.899 27.7536 179.559 26.3482C191.22 24.9427 197.393 27.7536 203.566 35.4836C209.739 43.2136 220.028 76.2418 238.547 81.8636C257.067 87.4854 275.586 64.9982 291.362 64.9982C307.138 64.9982 311.939 73.4309 313.997 76.9445C316.054 80.4582 321.542 91.7018 327.715 110.675C333.888 129.649 340.061 145.812 354.465 147.217C368.869 148.623 390.132 133.865 401.107 133.163C412.081 132.46 420.312 131.757 434.03 138.784C447.748 145.812 449.12 152.839 474.498 149.325C499.877 145.812 489.588 126.135 521.826 121.919C554.063 117.703 544.785 96.7857 570.525 89.5936C600.705 81.1609 606.878 118.405 635 118.405" stroke="#FF764C"/>
<path d="M190.22 213.668C189.333 213.668 188.638 213.421 188.134 212.926C187.63 212.431 187.378 211.745 187.378 210.868H188.568C188.568 211.363 188.689 211.778 188.932 212.114C189.175 212.45 189.599 212.618 190.206 212.618C190.794 212.618 191.2 212.455 191.424 212.128C191.657 211.801 191.774 211.395 191.774 210.91V203.7H192.95V210.91C192.95 211.778 192.707 212.455 192.222 212.94C191.746 213.425 191.079 213.668 190.22 213.668ZM197.486 213.668C196.665 213.668 196.012 213.421 195.526 212.926C195.041 212.422 194.798 211.652 194.798 210.616V206.556H195.974V210.49C195.974 211.937 196.567 212.66 197.752 212.66C198.359 212.66 198.858 212.445 199.25 212.016C199.652 211.577 199.852 210.957 199.852 210.154V206.556H201.028V213.5H199.964L199.88 212.254C199.666 212.693 199.344 213.038 198.914 213.29C198.494 213.542 198.018 213.668 197.486 213.668ZM203.678 205.016C203.445 205.016 203.249 204.941 203.09 204.792C202.941 204.633 202.866 204.437 202.866 204.204C202.866 203.98 202.941 203.793 203.09 203.644C203.249 203.495 203.445 203.42 203.678 203.42C203.902 203.42 204.093 203.495 204.252 203.644C204.411 203.793 204.49 203.98 204.49 204.204C204.49 204.437 204.411 204.633 204.252 204.792C204.093 204.941 203.902 205.016 203.678 205.016ZM203.09 213.5V206.556H204.266V213.5H203.09ZM206.314 213.5V203.42H207.49V213.5H206.314Z" fill="#808191"/>
<path d="M242.563 213.5L246.175 203.7H247.421L251.019 213.5H249.773L248.877 210.98H244.705L243.795 213.5H242.563ZM245.055 210.028H248.527L246.791 205.184L245.055 210.028ZM255.187 213.668C254.534 213.668 253.946 213.519 253.423 213.22C252.9 212.921 252.485 212.501 252.177 211.96C251.878 211.409 251.729 210.765 251.729 210.028C251.729 209.291 251.883 208.651 252.191 208.11C252.499 207.559 252.914 207.135 253.437 206.836C253.969 206.537 254.562 206.388 255.215 206.388C255.868 206.388 256.456 206.537 256.979 206.836C257.502 207.135 257.912 207.559 258.211 208.11C258.519 208.651 258.673 209.291 258.673 210.028C258.673 210.765 258.519 211.409 258.211 211.96C257.903 212.501 257.483 212.921 256.951 213.22C256.428 213.519 255.84 213.668 255.187 213.668ZM255.187 212.66C255.588 212.66 255.962 212.562 256.307 212.366C256.652 212.17 256.932 211.876 257.147 211.484C257.362 211.092 257.469 210.607 257.469 210.028C257.469 209.449 257.362 208.964 257.147 208.572C256.942 208.18 256.666 207.886 256.321 207.69C255.976 207.494 255.607 207.396 255.215 207.396C254.814 207.396 254.44 207.494 254.095 207.69C253.75 207.886 253.47 208.18 253.255 208.572C253.04 208.964 252.933 209.449 252.933 210.028C252.933 210.607 253.04 211.092 253.255 211.484C253.47 211.876 253.745 212.17 254.081 212.366C254.426 212.562 254.795 212.66 255.187 212.66ZM262.842 213.668C262.021 213.668 261.367 213.421 260.882 212.926C260.397 212.422 260.154 211.652 260.154 210.616V206.556H261.33V210.49C261.33 211.937 261.923 212.66 263.108 212.66C263.715 212.66 264.214 212.445 264.606 212.016C265.007 211.577 265.208 210.957 265.208 210.154V206.556H266.384V213.5H265.32L265.236 212.254C265.021 212.693 264.699 213.038 264.27 213.29C263.85 213.542 263.374 213.668 262.842 213.668ZM271.064 213.5C270.429 213.5 269.93 213.346 269.566 213.038C269.202 212.73 269.02 212.175 269.02 211.372V207.55H267.816V206.556H269.02L269.174 204.89H270.196V206.556H272.24V207.55H270.196V211.372C270.196 211.811 270.284 212.109 270.462 212.268C270.639 212.417 270.952 212.492 271.4 212.492H272.128V213.5H271.064Z" fill="#808191"/>
<path d="M310.444 213.668C309.725 213.668 309.1 213.537 308.568 213.276C308.036 213.015 307.625 212.651 307.336 212.184C307.046 211.717 306.902 211.176 306.902 210.56H308.134C308.134 210.943 308.222 211.297 308.4 211.624C308.577 211.941 308.834 212.198 309.17 212.394C309.515 212.581 309.94 212.674 310.444 212.674C311.106 212.674 311.62 212.515 311.984 212.198C312.348 211.881 312.53 211.484 312.53 211.008C312.53 210.616 312.446 210.303 312.278 210.07C312.11 209.827 311.881 209.631 311.592 209.482C311.312 209.333 310.985 209.202 310.612 209.09C310.248 208.978 309.865 208.852 309.464 208.712C308.708 208.451 308.148 208.129 307.784 207.746C307.42 207.354 307.238 206.845 307.238 206.22C307.228 205.697 307.35 205.235 307.602 204.834C307.854 204.423 308.208 204.106 308.666 203.882C309.132 203.649 309.683 203.532 310.318 203.532C310.943 203.532 311.484 203.649 311.942 203.882C312.408 204.115 312.768 204.437 313.02 204.848C313.281 205.259 313.416 205.725 313.426 206.248H312.194C312.194 205.977 312.124 205.711 311.984 205.45C311.844 205.179 311.629 204.96 311.34 204.792C311.06 204.624 310.705 204.54 310.276 204.54C309.744 204.531 309.305 204.666 308.96 204.946C308.624 205.226 308.456 205.613 308.456 206.108C308.456 206.528 308.572 206.85 308.806 207.074C309.048 207.298 309.384 207.485 309.814 207.634C310.243 207.774 310.738 207.937 311.298 208.124C311.764 208.292 312.184 208.488 312.558 208.712C312.931 208.936 313.22 209.225 313.426 209.58C313.64 209.935 313.748 210.387 313.748 210.938C313.748 211.405 313.626 211.848 313.384 212.268C313.141 212.679 312.772 213.015 312.278 213.276C311.792 213.537 311.181 213.668 310.444 213.668ZM318.467 213.668C317.805 213.668 317.217 213.519 316.703 213.22C316.19 212.912 315.784 212.487 315.485 211.946C315.196 211.405 315.051 210.765 315.051 210.028C315.051 209.3 315.196 208.665 315.485 208.124C315.775 207.573 316.176 207.149 316.689 206.85C317.212 206.542 317.814 206.388 318.495 206.388C319.167 206.388 319.746 206.542 320.231 206.85C320.726 207.149 321.104 207.545 321.365 208.04C321.627 208.535 321.757 209.067 321.757 209.636C321.757 209.739 321.753 209.841 321.743 209.944C321.743 210.047 321.743 210.163 321.743 210.294H316.213C316.241 210.826 316.363 211.269 316.577 211.624C316.801 211.969 317.077 212.231 317.403 212.408C317.739 212.585 318.094 212.674 318.467 212.674C318.953 212.674 319.359 212.562 319.685 212.338C320.012 212.114 320.25 211.811 320.399 211.428H321.561C321.375 212.072 321.015 212.609 320.483 213.038C319.961 213.458 319.289 213.668 318.467 213.668ZM318.467 207.382C317.907 207.382 317.408 207.555 316.969 207.9C316.54 208.236 316.293 208.731 316.227 209.384H320.595C320.567 208.759 320.353 208.269 319.951 207.914C319.55 207.559 319.055 207.382 318.467 207.382ZM323.316 216.58V206.556H324.38L324.492 207.704C324.716 207.368 325.033 207.065 325.444 206.794C325.864 206.523 326.396 206.388 327.04 206.388C327.731 206.388 328.333 206.547 328.846 206.864C329.359 207.181 329.756 207.615 330.036 208.166C330.325 208.717 330.47 209.342 330.47 210.042C330.47 210.742 330.325 211.367 330.036 211.918C329.756 212.459 329.355 212.889 328.832 213.206C328.319 213.514 327.717 213.668 327.026 213.668C326.457 213.668 325.948 213.551 325.5 213.318C325.061 213.085 324.725 212.758 324.492 212.338V216.58H323.316ZM326.9 212.646C327.367 212.646 327.777 212.539 328.132 212.324C328.487 212.1 328.767 211.792 328.972 211.4C329.177 211.008 329.28 210.551 329.28 210.028C329.28 209.505 329.177 209.048 328.972 208.656C328.767 208.264 328.487 207.961 328.132 207.746C327.777 207.522 327.367 207.41 326.9 207.41C326.433 207.41 326.023 207.522 325.668 207.746C325.313 207.961 325.033 208.264 324.828 208.656C324.623 209.048 324.52 209.505 324.52 210.028C324.52 210.551 324.623 211.008 324.828 211.4C325.033 211.792 325.313 212.1 325.668 212.324C326.023 212.539 326.433 212.646 326.9 212.646Z" fill="#808191"/>
<path d="M369.917 213.668C368.955 213.668 368.111 213.458 367.383 213.038C366.664 212.609 366.099 212.011 365.689 211.246C365.287 210.481 365.087 209.599 365.087 208.6C365.087 207.601 365.287 206.724 365.689 205.968C366.099 205.203 366.664 204.605 367.383 204.176C368.111 203.747 368.955 203.532 369.917 203.532C370.887 203.532 371.732 203.747 372.451 204.176C373.179 204.605 373.743 205.203 374.145 205.968C374.546 206.724 374.747 207.601 374.747 208.6C374.747 209.599 374.546 210.481 374.145 211.246C373.743 212.011 373.179 212.609 372.451 213.038C371.732 213.458 370.887 213.668 369.917 213.668ZM369.917 212.632C370.635 212.632 371.265 212.473 371.807 212.156C372.357 211.829 372.782 211.367 373.081 210.77C373.389 210.163 373.543 209.44 373.543 208.6C373.543 207.76 373.389 207.041 373.081 206.444C372.782 205.847 372.357 205.389 371.807 205.072C371.265 204.745 370.635 204.582 369.917 204.582C369.198 204.582 368.563 204.745 368.013 205.072C367.471 205.389 367.047 205.847 366.739 206.444C366.44 207.041 366.291 207.76 366.291 208.6C366.291 209.44 366.44 210.163 366.739 210.77C367.047 211.367 367.471 211.829 368.013 212.156C368.563 212.473 369.198 212.632 369.917 212.632ZM379.565 213.668C378.902 213.668 378.305 213.519 377.773 213.22C377.25 212.912 376.835 212.487 376.527 211.946C376.228 211.395 376.079 210.756 376.079 210.028C376.079 209.3 376.228 208.665 376.527 208.124C376.835 207.573 377.25 207.149 377.773 206.85C378.305 206.542 378.902 206.388 379.565 206.388C380.386 206.388 381.077 206.603 381.637 207.032C382.206 207.461 382.566 208.035 382.715 208.754H381.511C381.418 208.325 381.189 207.993 380.825 207.76C380.461 207.517 380.036 207.396 379.551 207.396C379.159 207.396 378.79 207.494 378.445 207.69C378.1 207.886 377.82 208.18 377.605 208.572C377.39 208.964 377.283 209.449 377.283 210.028C377.283 210.607 377.39 211.092 377.605 211.484C377.82 211.876 378.1 212.175 378.445 212.38C378.79 212.576 379.159 212.674 379.551 212.674C380.036 212.674 380.461 212.557 380.825 212.324C381.189 212.081 381.418 211.741 381.511 211.302H382.715C382.575 212.002 382.22 212.571 381.651 213.01C381.082 213.449 380.386 213.668 379.565 213.668ZM386.91 213.5C386.275 213.5 385.776 213.346 385.412 213.038C385.048 212.73 384.866 212.175 384.866 211.372V207.55H383.662V206.556H384.866L385.02 204.89H386.042V206.556H388.086V207.55H386.042V211.372C386.042 211.811 386.131 212.109 386.308 212.268C386.485 212.417 386.798 212.492 387.246 212.492H387.974V213.5H386.91Z" fill="#808191"/>
<path d="M423.607 213.5V203.7H424.783L430.005 211.554V203.7H431.181V213.5H430.005L424.783 205.646V213.5H423.607ZM436.354 213.668C435.7 213.668 435.112 213.519 434.59 213.22C434.067 212.921 433.652 212.501 433.344 211.96C433.045 211.409 432.896 210.765 432.896 210.028C432.896 209.291 433.05 208.651 433.358 208.11C433.666 207.559 434.081 207.135 434.604 206.836C435.136 206.537 435.728 206.388 436.382 206.388C437.035 206.388 437.623 206.537 438.146 206.836C438.668 207.135 439.079 207.559 439.378 208.11C439.686 208.651 439.84 209.291 439.84 210.028C439.84 210.765 439.686 211.409 439.378 211.96C439.07 212.501 438.65 212.921 438.118 213.22C437.595 213.519 437.007 213.668 436.354 213.668ZM436.354 212.66C436.755 212.66 437.128 212.562 437.474 212.366C437.819 212.17 438.099 211.876 438.314 211.484C438.528 211.092 438.636 210.607 438.636 210.028C438.636 209.449 438.528 208.964 438.314 208.572C438.108 208.18 437.833 207.886 437.488 207.69C437.142 207.494 436.774 207.396 436.382 207.396C435.98 207.396 435.607 207.494 435.262 207.69C434.916 207.886 434.636 208.18 434.422 208.572C434.207 208.964 434.1 209.449 434.1 210.028C434.1 210.607 434.207 211.092 434.422 211.484C434.636 211.876 434.912 212.17 435.248 212.366C435.593 212.562 435.962 212.66 436.354 212.66ZM443.121 213.5L440.489 206.556H441.721L443.807 212.366L445.907 206.556H447.111L444.479 213.5H443.121Z" fill="#808191"/>
<path d="M481.75 213.5V203.7H484.76C486.487 203.7 487.756 204.139 488.568 205.016C489.39 205.893 489.8 207.097 489.8 208.628C489.8 210.131 489.39 211.321 488.568 212.198C487.756 213.066 486.487 213.5 484.76 213.5H481.75ZM482.926 212.52H484.732C485.684 212.52 486.44 212.366 487 212.058C487.57 211.741 487.976 211.293 488.218 210.714C488.461 210.126 488.582 209.431 488.582 208.628C488.582 207.807 488.461 207.102 488.218 206.514C487.976 205.926 487.57 205.473 487 205.156C486.44 204.839 485.684 204.68 484.732 204.68H482.926V212.52ZM494.55 213.668C493.888 213.668 493.3 213.519 492.786 213.22C492.273 212.912 491.867 212.487 491.568 211.946C491.279 211.405 491.134 210.765 491.134 210.028C491.134 209.3 491.279 208.665 491.568 208.124C491.858 207.573 492.259 207.149 492.772 206.85C493.295 206.542 493.897 206.388 494.578 206.388C495.25 206.388 495.829 206.542 496.314 206.85C496.809 207.149 497.187 207.545 497.448 208.04C497.71 208.535 497.84 209.067 497.84 209.636C497.84 209.739 497.836 209.841 497.826 209.944C497.826 210.047 497.826 210.163 497.826 210.294H492.296C492.324 210.826 492.446 211.269 492.66 211.624C492.884 211.969 493.16 212.231 493.486 212.408C493.822 212.585 494.177 212.674 494.55 212.674C495.036 212.674 495.442 212.562 495.768 212.338C496.095 212.114 496.333 211.811 496.482 211.428H497.644C497.458 212.072 497.098 212.609 496.566 213.038C496.044 213.458 495.372 213.668 494.55 213.668ZM494.55 207.382C493.99 207.382 493.491 207.555 493.052 207.9C492.623 208.236 492.376 208.731 492.31 209.384H496.678C496.65 208.759 496.436 208.269 496.034 207.914C495.633 207.559 495.138 207.382 494.55 207.382ZM502.591 213.668C501.928 213.668 501.331 213.519 500.799 213.22C500.276 212.912 499.861 212.487 499.553 211.946C499.254 211.395 499.105 210.756 499.105 210.028C499.105 209.3 499.254 208.665 499.553 208.124C499.861 207.573 500.276 207.149 500.799 206.85C501.331 206.542 501.928 206.388 502.591 206.388C503.412 206.388 504.103 206.603 504.663 207.032C505.232 207.461 505.592 208.035 505.741 208.754H504.537C504.444 208.325 504.215 207.993 503.851 207.76C503.487 207.517 503.062 207.396 502.577 207.396C502.185 207.396 501.816 207.494 501.471 207.69C501.126 207.886 500.846 208.18 500.631 208.572C500.416 208.964 500.309 209.449 500.309 210.028C500.309 210.607 500.416 211.092 500.631 211.484C500.846 211.876 501.126 212.175 501.471 212.38C501.816 212.576 502.185 212.674 502.577 212.674C503.062 212.674 503.487 212.557 503.851 212.324C504.215 212.081 504.444 211.741 504.537 211.302H505.741C505.601 212.002 505.246 212.571 504.677 213.01C504.108 213.449 503.412 213.668 502.591 213.668Z" fill="#808191"/>
<path d="M543.077 213.668C542.19 213.668 541.495 213.421 540.991 212.926C540.487 212.431 540.235 211.745 540.235 210.868H541.425C541.425 211.363 541.546 211.778 541.789 212.114C542.032 212.45 542.456 212.618 543.063 212.618C543.651 212.618 544.057 212.455 544.281 212.128C544.514 211.801 544.631 211.395 544.631 210.91V203.7H545.807V210.91C545.807 211.778 545.564 212.455 545.079 212.94C544.603 213.425 543.936 213.668 543.077 213.668ZM550.119 213.668C549.541 213.668 549.06 213.57 548.677 213.374C548.295 213.178 548.01 212.917 547.823 212.59C547.637 212.263 547.543 211.909 547.543 211.526C547.543 210.817 547.814 210.271 548.355 209.888C548.897 209.505 549.634 209.314 550.567 209.314H552.443V209.23C552.443 208.623 552.285 208.166 551.967 207.858C551.65 207.541 551.225 207.382 550.693 207.382C550.236 207.382 549.839 207.499 549.503 207.732C549.177 207.956 548.971 208.287 548.887 208.726H547.683C547.73 208.222 547.898 207.797 548.187 207.452C548.486 207.107 548.855 206.845 549.293 206.668C549.732 206.481 550.199 206.388 550.693 206.388C551.664 206.388 552.392 206.649 552.877 207.172C553.372 207.685 553.619 208.371 553.619 209.23V213.5H552.569L552.499 212.254C552.303 212.646 552.014 212.982 551.631 213.262C551.258 213.533 550.754 213.668 550.119 213.668ZM550.301 212.674C550.749 212.674 551.132 212.557 551.449 212.324C551.776 212.091 552.023 211.787 552.191 211.414C552.359 211.041 552.443 210.649 552.443 210.238V210.224H550.665C549.975 210.224 549.485 210.345 549.195 210.588C548.915 210.821 548.775 211.115 548.775 211.47C548.775 211.834 548.906 212.128 549.167 212.352C549.438 212.567 549.816 212.674 550.301 212.674ZM555.384 213.5V206.556H556.448L556.518 207.802C556.742 207.363 557.064 207.018 557.484 206.766C557.904 206.514 558.38 206.388 558.912 206.388C559.733 206.388 560.386 206.64 560.872 207.144C561.366 207.639 561.614 208.404 561.614 209.44V213.5H560.438V209.566C560.438 208.119 559.84 207.396 558.646 207.396C558.048 207.396 557.549 207.615 557.148 208.054C556.756 208.483 556.56 209.099 556.56 209.902V213.5H555.384Z" fill="#808191"/>
<path d="M597.036 213.5V203.7H603V204.666H598.212V208.11H602.286V209.062H598.212V213.5H597.036ZM607.266 213.668C606.603 213.668 606.015 213.519 605.502 213.22C604.988 212.912 604.582 212.487 604.284 211.946C603.994 211.405 603.85 210.765 603.85 210.028C603.85 209.3 603.994 208.665 604.284 208.124C604.573 207.573 604.974 207.149 605.488 206.85C606.01 206.542 606.612 206.388 607.294 206.388C607.966 206.388 608.544 206.542 609.03 206.85C609.524 207.149 609.902 207.545 610.164 208.04C610.425 208.535 610.556 209.067 610.556 209.636C610.556 209.739 610.551 209.841 610.542 209.944C610.542 210.047 610.542 210.163 610.542 210.294H605.012C605.04 210.826 605.161 211.269 605.376 211.624C605.6 211.969 605.875 212.231 606.202 212.408C606.538 212.585 606.892 212.674 607.266 212.674C607.751 212.674 608.157 212.562 608.484 212.338C608.81 212.114 609.048 211.811 609.198 211.428H610.36C610.173 212.072 609.814 212.609 609.282 213.038C608.759 213.458 608.087 213.668 607.266 213.668ZM607.266 207.382C606.706 207.382 606.206 207.555 605.768 207.9C605.338 208.236 605.091 208.731 605.026 209.384H609.394C609.366 208.759 609.151 208.269 608.75 207.914C608.348 207.559 607.854 207.382 607.266 207.382ZM613.843 213.5L611.211 206.556H612.443L614.529 212.366L616.629 206.556H617.833L615.201 213.5H613.843Z" fill="#808191"/>
<path d="M139.22 214.168C138.333 214.168 137.638 213.921 137.134 213.426C136.63 212.931 136.378 212.245 136.378 211.368H137.568C137.568 211.863 137.689 212.278 137.932 212.614C138.175 212.95 138.599 213.118 139.206 213.118C139.794 213.118 140.2 212.955 140.424 212.628C140.657 212.301 140.774 211.895 140.774 211.41V204.2H141.95V211.41C141.95 212.278 141.707 212.955 141.222 213.44C140.746 213.925 140.079 214.168 139.22 214.168ZM146.486 214.168C145.665 214.168 145.012 213.921 144.526 213.426C144.041 212.922 143.798 212.152 143.798 211.116V207.056H144.974V210.99C144.974 212.437 145.567 213.16 146.752 213.16C147.359 213.16 147.858 212.945 148.25 212.516C148.652 212.077 148.852 211.457 148.852 210.654V207.056H150.028V214H148.964L148.88 212.754C148.666 213.193 148.344 213.538 147.914 213.79C147.494 214.042 147.018 214.168 146.486 214.168ZM152.678 205.516C152.445 205.516 152.249 205.441 152.09 205.292C151.941 205.133 151.866 204.937 151.866 204.704C151.866 204.48 151.941 204.293 152.09 204.144C152.249 203.995 152.445 203.92 152.678 203.92C152.902 203.92 153.093 203.995 153.252 204.144C153.411 204.293 153.49 204.48 153.49 204.704C153.49 204.937 153.411 205.133 153.252 205.292C153.093 205.441 152.902 205.516 152.678 205.516ZM152.09 214V207.056H153.266V214H152.09Z" fill="#808191"/>
<path d="M86.036 214V204.2H87.408L90.936 211.032L94.436 204.2H95.822V214H94.646V206.3L91.37 212.6H90.488L87.212 206.314V214H86.036ZM100.13 214.168C99.5508 214.168 99.0702 214.07 98.6875 213.874C98.3048 213.678 98.0202 213.417 97.8335 213.09C97.6468 212.763 97.5535 212.409 97.5535 212.026C97.5535 211.317 97.8242 210.771 98.3655 210.388C98.9068 210.005 99.6442 209.814 100.578 209.814H102.454V209.73C102.454 209.123 102.295 208.666 101.978 208.358C101.66 208.041 101.236 207.882 100.704 207.882C100.246 207.882 99.8495 207.999 99.5135 208.232C99.1868 208.456 98.9815 208.787 98.8975 209.226H97.6935C97.7402 208.722 97.9082 208.297 98.1975 207.952C98.4962 207.607 98.8648 207.345 99.3035 207.168C99.7422 206.981 100.209 206.888 100.704 206.888C101.674 206.888 102.402 207.149 102.888 207.672C103.382 208.185 103.63 208.871 103.63 209.73V214H102.58L102.51 212.754C102.314 213.146 102.024 213.482 101.642 213.762C101.268 214.033 100.764 214.168 100.13 214.168ZM100.312 213.174C100.76 213.174 101.142 213.057 101.46 212.824C101.786 212.591 102.034 212.287 102.202 211.914C102.37 211.541 102.454 211.149 102.454 210.738V210.724H100.676C99.9848 210.724 99.4948 210.845 99.2055 211.088C98.9255 211.321 98.7855 211.615 98.7855 211.97C98.7855 212.334 98.9162 212.628 99.1775 212.852C99.4482 213.067 99.8262 213.174 100.312 213.174ZM106.108 205.516C105.874 205.516 105.678 205.441 105.52 205.292C105.37 205.133 105.296 204.937 105.296 204.704C105.296 204.48 105.37 204.293 105.52 204.144C105.678 203.995 105.874 203.92 106.108 203.92C106.332 203.92 106.523 203.995 106.682 204.144C106.84 204.293 106.92 204.48 106.92 204.704C106.92 204.937 106.84 205.133 106.682 205.292C106.523 205.441 106.332 205.516 106.108 205.516ZM105.52 214V207.056H106.696V214H105.52Z" fill="#808191"/>
<path d="M18.42 214L22.032 204.2H23.278L26.876 214H25.63L24.734 211.48H20.562L19.652 214H18.42ZM20.912 210.528H24.384L22.648 205.684L20.912 210.528ZM29.5539 214L26.9219 207.056H28.1539L30.2399 212.866L32.3399 207.056H33.5439L30.9119 214H29.5539ZM34.8527 214V207.056H35.9167L36.0147 208.386C36.2294 207.929 36.5561 207.565 36.9947 207.294C37.4334 207.023 37.9747 206.888 38.6187 206.888V208.12H38.2967C37.8861 208.12 37.5081 208.195 37.1627 208.344C36.8174 208.484 36.5421 208.727 36.3367 209.072C36.1314 209.417 36.0287 209.893 36.0287 210.5V214H34.8527ZM40.6527 205.516C40.4193 205.516 40.2233 205.441 40.0647 205.292C39.9153 205.133 39.8407 204.937 39.8407 204.704C39.8407 204.48 39.9153 204.293 40.0647 204.144C40.2233 203.995 40.4193 203.92 40.6527 203.92C40.8767 203.92 41.068 203.995 41.2267 204.144C41.3853 204.293 41.4647 204.48 41.4647 204.704C41.4647 204.937 41.3853 205.133 41.2267 205.292C41.068 205.441 40.8767 205.516 40.6527 205.516ZM40.0647 214V207.056H41.2407V214H40.0647ZM43.2883 214V203.92H44.4643V214H43.2883Z" fill="#808191"/>
<rect x="450" y="14" width="170" height="20" rx="10" fill="#F5F4F6"/>
<rect x="564" y="14" width="56" height="20" rx="10" fill="#FF764C"/>
<path d="M576.23 27.5L578.79 20.5H580.23L582.79 27.5H581.43L580.87 25.88H578.14L577.57 27.5H576.23ZM578.49 24.88H580.52L579.5 21.97L578.49 24.88ZM583.662 27.5V22.54H584.792L584.892 23.38C585.045 23.0867 585.265 22.8533 585.552 22.68C585.845 22.5067 586.188 22.42 586.582 22.42C587.195 22.42 587.672 22.6133 588.012 23C588.352 23.3867 588.522 23.9533 588.522 24.7V27.5H587.242V24.82C587.242 24.3933 587.155 24.0667 586.982 23.84C586.808 23.6133 586.538 23.5 586.172 23.5C585.812 23.5 585.515 23.6267 585.282 23.88C585.055 24.1333 584.942 24.4867 584.942 24.94V27.5H583.662ZM589.746 27.5V22.54H590.876L590.976 23.38C591.129 23.0867 591.349 22.8533 591.636 22.68C591.929 22.5067 592.272 22.42 592.666 22.42C593.279 22.42 593.756 22.6133 594.096 23C594.436 23.3867 594.606 23.9533 594.606 24.7V27.5H593.326V24.82C593.326 24.3933 593.239 24.0667 593.066 23.84C592.892 23.6133 592.622 23.5 592.256 23.5C591.896 23.5 591.599 23.6267 591.366 23.88C591.139 24.1333 591.026 24.4867 591.026 24.94V27.5H589.746ZM598.24 27.62C597.74 27.62 597.296 27.5133 596.91 27.3C596.523 27.0867 596.22 26.7867 596 26.4C595.78 26.0133 595.67 25.5667 595.67 25.06C595.67 24.5467 595.776 24.09 595.99 23.69C596.21 23.29 596.51 22.98 596.89 22.76C597.276 22.5333 597.73 22.42 598.25 22.42C598.736 22.42 599.166 22.5267 599.54 22.74C599.913 22.9533 600.203 23.2467 600.41 23.62C600.623 23.9867 600.73 24.3967 600.73 24.85C600.73 24.9233 600.726 25 600.72 25.08C600.72 25.16 600.716 25.2433 600.71 25.33H596.94C596.966 25.7167 597.1 26.02 597.34 26.24C597.586 26.46 597.883 26.57 598.23 26.57C598.49 26.57 598.706 26.5133 598.88 26.4C599.06 26.28 599.193 26.1267 599.28 25.94H600.58C600.486 26.2533 600.33 26.54 600.11 26.8C599.896 27.0533 599.63 27.2533 599.31 27.4C598.996 27.5467 598.64 27.62 598.24 27.62ZM598.25 23.46C597.936 23.46 597.66 23.55 597.42 23.73C597.18 23.9033 597.026 24.17 596.96 24.53H599.43C599.41 24.2033 599.29 23.9433 599.07 23.75C598.85 23.5567 598.576 23.46 598.25 23.46ZM597.89 22.14V21.24L600.15 20.02V21.06L597.89 22.14ZM604.216 27.62C603.716 27.62 603.273 27.5133 602.886 27.3C602.5 27.0867 602.196 26.7867 601.976 26.4C601.756 26.0133 601.646 25.5667 601.646 25.06C601.646 24.5467 601.753 24.09 601.966 23.69C602.186 23.29 602.486 22.98 602.866 22.76C603.253 22.5333 603.706 22.42 604.226 22.42C604.713 22.42 605.143 22.5267 605.516 22.74C605.89 22.9533 606.18 23.2467 606.386 23.62C606.6 23.9867 606.706 24.3967 606.706 24.85C606.706 24.9233 606.703 25 606.696 25.08C606.696 25.16 606.693 25.2433 606.686 25.33H602.916C602.943 25.7167 603.076 26.02 603.316 26.24C603.563 26.46 603.86 26.57 604.206 26.57C604.466 26.57 604.683 26.5133 604.856 26.4C605.036 26.28 605.17 26.1267 605.256 25.94H606.556C606.463 26.2533 606.306 26.54 606.086 26.8C605.873 27.0533 605.606 27.2533 605.286 27.4C604.973 27.5467 604.616 27.62 604.216 27.62ZM604.226 23.46C603.913 23.46 603.636 23.55 603.396 23.73C603.156 23.9033 603.003 24.17 602.936 24.53H605.406C605.386 24.2033 605.266 23.9433 605.046 23.75C604.826 23.5567 604.553 23.46 604.226 23.46Z" fill="white"/>
<path d="M516.68 27.5V20.5H518.2L520.43 24.94L522.63 20.5H524.15V27.5H522.87V22.67L520.92 26.5H519.91L517.96 22.67V27.5H516.68ZM527.858 27.62C527.378 27.62 526.945 27.51 526.558 27.29C526.178 27.07 525.875 26.7667 525.648 26.38C525.428 25.9867 525.318 25.5333 525.318 25.02C525.318 24.5067 525.431 24.0567 525.658 23.67C525.885 23.2767 526.188 22.97 526.568 22.75C526.955 22.53 527.388 22.42 527.868 22.42C528.341 22.42 528.768 22.53 529.148 22.75C529.535 22.97 529.838 23.2767 530.058 23.67C530.285 24.0567 530.398 24.5067 530.398 25.02C530.398 25.5333 530.285 25.9867 530.058 26.38C529.838 26.7667 529.535 27.07 529.148 27.29C528.761 27.51 528.331 27.62 527.858 27.62ZM527.858 26.51C528.191 26.51 528.481 26.3867 528.728 26.14C528.975 25.8867 529.098 25.5133 529.098 25.02C529.098 24.5267 528.975 24.1567 528.728 23.91C528.481 23.6567 528.195 23.53 527.868 23.53C527.528 23.53 527.235 23.6567 526.988 23.91C526.748 24.1567 526.628 24.5267 526.628 25.02C526.628 25.5133 526.748 25.8867 526.988 26.14C527.235 26.3867 527.525 26.51 527.858 26.51ZM532.233 21.77C531.999 21.77 531.806 21.7 531.653 21.56C531.506 21.42 531.433 21.2433 531.433 21.03C531.433 20.8167 531.506 20.6433 531.653 20.51C531.806 20.37 531.999 20.3 532.233 20.3C532.466 20.3 532.656 20.37 532.803 20.51C532.956 20.6433 533.033 20.8167 533.033 21.03C533.033 21.2433 532.956 21.42 532.803 21.56C532.656 21.7 532.466 21.77 532.233 21.77ZM531.593 27.5V22.54H532.873V27.5H531.593ZM536.259 27.62C535.819 27.62 535.432 27.55 535.099 27.41C534.765 27.2633 534.499 27.0633 534.299 26.81C534.099 26.5567 533.979 26.2633 533.939 25.93H535.229C535.269 26.1233 535.375 26.29 535.549 26.43C535.729 26.5633 535.959 26.63 536.239 26.63C536.519 26.63 536.722 26.5733 536.849 26.46C536.982 26.3467 537.049 26.2167 537.049 26.07C537.049 25.8567 536.955 25.7133 536.769 25.64C536.582 25.56 536.322 25.4833 535.989 25.41C535.775 25.3633 535.559 25.3067 535.339 25.24C535.119 25.1733 534.915 25.09 534.729 24.99C534.549 24.8833 534.402 24.75 534.289 24.59C534.175 24.4233 534.119 24.22 534.119 23.98C534.119 23.54 534.292 23.17 534.639 22.87C534.992 22.57 535.485 22.42 536.119 22.42C536.705 22.42 537.172 22.5567 537.519 22.83C537.872 23.1033 538.082 23.48 538.149 23.96H536.939C536.865 23.5933 536.589 23.41 536.109 23.41C535.869 23.41 535.682 23.4567 535.549 23.55C535.422 23.6433 535.359 23.76 535.359 23.9C535.359 24.0467 535.455 24.1633 535.649 24.25C535.842 24.3367 536.099 24.4167 536.419 24.49C536.765 24.57 537.082 24.66 537.369 24.76C537.662 24.8533 537.895 24.9967 538.069 25.19C538.242 25.3767 538.329 25.6467 538.329 26C538.335 26.3067 538.255 26.5833 538.089 26.83C537.922 27.0767 537.682 27.27 537.369 27.41C537.055 27.55 536.685 27.62 536.259 27.62Z" fill="#5F6165"/>
<path d="M461.51 27.62C460.83 27.62 460.283 27.43 459.87 27.05C459.463 26.6633 459.26 26.1167 459.26 25.41H460.54C460.547 25.7367 460.623 25.9967 460.77 26.19C460.917 26.3833 461.153 26.48 461.48 26.48C461.787 26.48 462.01 26.39 462.15 26.21C462.29 26.0233 462.36 25.78 462.36 25.48V20.5H463.64V25.48C463.64 26.1667 463.447 26.6967 463.06 27.07C462.68 27.4367 462.163 27.62 461.51 27.62ZM467.352 27.62C466.872 27.62 466.439 27.51 466.052 27.29C465.672 27.07 465.369 26.7667 465.142 26.38C464.922 25.9867 464.812 25.5333 464.812 25.02C464.812 24.5067 464.926 24.0567 465.152 23.67C465.379 23.2767 465.682 22.97 466.062 22.75C466.449 22.53 466.882 22.42 467.362 22.42C467.836 22.42 468.262 22.53 468.642 22.75C469.029 22.97 469.332 23.2767 469.552 23.67C469.779 24.0567 469.892 24.5067 469.892 25.02C469.892 25.5333 469.779 25.9867 469.552 26.38C469.332 26.7667 469.029 27.07 468.642 27.29C468.256 27.51 467.826 27.62 467.352 27.62ZM467.352 26.51C467.686 26.51 467.976 26.3867 468.222 26.14C468.469 25.8867 468.592 25.5133 468.592 25.02C468.592 24.5267 468.469 24.1567 468.222 23.91C467.976 23.6567 467.689 23.53 467.362 23.53C467.022 23.53 466.729 23.6567 466.482 23.91C466.242 24.1567 466.122 24.5267 466.122 25.02C466.122 25.5133 466.242 25.8867 466.482 26.14C466.729 26.3867 467.019 26.51 467.352 26.51ZM472.897 27.62C472.277 27.62 471.797 27.4267 471.457 27.04C471.123 26.6533 470.957 26.0867 470.957 25.34V22.54H472.227V25.22C472.227 25.6467 472.313 25.9733 472.487 26.2C472.66 26.4267 472.933 26.54 473.307 26.54C473.66 26.54 473.95 26.4133 474.177 26.16C474.41 25.9067 474.527 25.5533 474.527 25.1V22.54H475.807V27.5H474.677L474.577 26.66C474.423 26.9533 474.2 27.1867 473.907 27.36C473.62 27.5333 473.283 27.62 472.897 27.62ZM477.121 27.5V22.54H478.261L478.381 23.47C478.561 23.15 478.804 22.8967 479.111 22.71C479.424 22.5167 479.791 22.42 480.211 22.42V23.77H479.851C479.571 23.77 479.321 23.8133 479.101 23.9C478.881 23.9867 478.707 24.1367 478.581 24.35C478.461 24.5633 478.401 24.86 478.401 25.24V27.5H477.121Z" fill="#5F6165"/>
</g>
<defs>
<linearGradient id="paint0_linear_706_9446" x1="315.368" y1="-51.8208" x2="314.652" y2="165.517" gradientUnits="userSpaceOnUse">
<stop stop-color="#FF764C" stop-opacity="0.24"/>
<stop offset="1" stop-color="#FF7E07" stop-opacity="0"/>
</linearGradient>
<clipPath id="clip0_706_9446">
<rect width="634" height="325" rx="16.5784" fill="white"/>
</clipPath>
</defs>
</svg>
