<svg width="38" height="38" viewBox="0 0 38 38" fill="none" xmlns="http://www.w3.org/2000/svg">
<g filter="url(#filter0_d_100_3441)">
<g clip-path="url(#clip0_100_3441)">
<rect x="0.458649" y="0.460938" width="36.4725" height="36.4725" rx="5.71955" fill="url(#paint0_angular_100_3441)" fill-opacity="0.6"/>
<rect x="0.458649" y="0.460938" width="36.4725" height="36.4725" rx="5.71955" fill="#FF6191" fill-opacity="0.6"/>
<g filter="url(#filter1_dii_100_3441)">
<path d="M11.2382 25.7545C11.2382 23.6936 12.9089 22.0229 14.9698 22.0229H18.7013V25.7545C18.7013 27.8154 17.0307 29.4861 14.9698 29.4861V29.4861C12.9089 29.4861 11.2382 27.8154 11.2382 25.7545V25.7545Z" fill="url(#paint1_linear_100_3441)"/>
</g>
<path opacity="0.4" d="M15.2031 23.5815H14.517C14.3927 23.5815 14.0117 23.7479 13.4815 24.4134C12.9928 25.0269 13.0375 25.7656 13.1376 26.1305C13.1517 26.1818 13.1995 26.2149 13.2527 26.2149H14.2179C14.2353 26.2149 14.2472 26.197 14.2404 26.1809L14.2197 26.132C14.2185 26.129 14.217 26.1261 14.2153 26.1234C13.8174 25.4775 14.6537 24.4243 15.2918 23.8104C15.376 23.7294 15.3198 23.5815 15.2031 23.5815Z" fill="url(#paint2_linear_100_3441)"/>
<path opacity="0.35" d="M17.253 22.8582C17.1934 23.4725 17.2019 23.7131 16.7699 24.1285L16.3313 23.9221C16.7521 23.5379 16.9654 23.4571 16.9623 22.7214L17.253 22.8582Z" fill="url(#paint3_linear_100_3441)"/>
<g filter="url(#filter2_di_100_3441)">
<path d="M18.7013 18.2911C18.7013 16.2303 20.372 14.5596 22.4329 14.5596V14.5596C24.4938 14.5596 26.1645 16.2303 26.1645 18.2911V18.2911C26.1645 20.352 24.4938 22.0227 22.4329 22.0227V22.0227C20.372 22.0227 18.7013 20.352 18.7013 18.2911V18.2911Z" fill="url(#paint4_linear_100_3441)"/>
</g>
<path opacity="0.4" d="M21.4777 16.6053C21.4249 16.5893 21.3676 16.6099 21.337 16.6558C20.7446 17.5445 20.8349 17.6128 20.7769 18.6341C20.7735 18.6923 20.8103 18.7455 20.8661 18.7624L21.3388 18.9058C21.4191 18.9301 21.5003 18.8697 21.5002 18.7858C21.4992 17.8554 21.4355 17.7517 22.0133 16.9435C22.0637 16.8731 22.031 16.7731 21.9481 16.7479L21.4777 16.6053Z" fill="url(#paint5_linear_100_3441)"/>
<path opacity="0.4" d="M23.0263 16.538C23.257 16.2406 23.7632 15.8218 24.3154 15.8083C24.3334 15.8078 24.3516 15.8118 24.3678 15.8197C24.9758 16.1145 25.1347 16.796 25.248 17.2102C25.2697 17.2896 25.2135 17.3714 25.1313 17.3767L23.641 17.4727C23.5895 17.476 23.5411 17.4472 23.5189 17.4006C23.2303 16.7931 23.2371 16.8783 23.039 16.6897C22.9966 16.6494 22.9905 16.5842 23.0263 16.538Z" fill="url(#paint6_linear_100_3441)"/>
<g filter="url(#filter3_di_100_3441)">
<path d="M18.7013 7.09668H22.4329C24.4938 7.09668 26.1645 8.76736 26.1645 10.8283V10.8283C26.1645 12.8892 24.4938 14.5598 22.4329 14.5598H18.7013V7.09668Z" fill="url(#paint7_linear_100_3441)"/>
<path d="M18.7013 7.09668H22.4329C24.4938 7.09668 26.1645 8.76736 26.1645 10.8283V10.8283C26.1645 12.8892 24.4938 14.5598 22.4329 14.5598H18.7013V7.09668Z" fill="url(#paint8_linear_100_3441)" fill-opacity="0.05"/>
</g>
<path opacity="0.3" d="M22.6984 14.5507L18.6919 14.5629V12.6963H25.6648C24.8635 13.9815 23.6065 14.5245 22.6984 14.5507Z" fill="url(#paint9_linear_100_3441)"/>
<g opacity="0.3" filter="url(#filter4_b_100_3441)">
<path d="M24.1477 7.96977C23.6608 7.97442 23.0459 8.56313 22.6107 8.98259C23.1112 8.89956 23.6553 9.56728 23.8648 9.91151C24.5682 9.49036 25.2586 9.62699 25.673 9.6851C25.3884 9.06949 24.6345 7.96513 24.1477 7.96977Z" fill="url(#paint10_linear_100_3441)"/>
</g>
<g filter="url(#filter5_ii_100_3441)">
<path d="M11.2382 10.8283C11.2382 8.76736 12.9088 7.09668 14.9697 7.09668H18.7013C18.7013 10.2265 18.7013 11.7851 18.7013 14.5598H14.9697C12.9088 14.5598 11.2382 12.8892 11.2382 10.8283V10.8283Z" fill="url(#paint11_linear_100_3441)"/>
</g>
<path opacity="0.3" d="M14.706 14.552L18.7108 14.563V12.8599H14.0025C13.0427 12.8599 12.5844 13.8985 13.4691 14.2706C13.9031 14.4531 14.3339 14.5422 14.706 14.552Z" fill="url(#paint12_linear_100_3441)"/>
<path opacity="0.3" d="M13.1541 11.6161C13.1088 11.5992 13.0772 11.5572 13.0729 11.5091C12.9357 9.98188 12.8706 9.17606 13.8198 8.10908C13.8514 8.07356 13.9011 8.0592 13.9469 8.07217L14.7043 8.28696C14.7959 8.31293 14.8262 8.42774 14.7611 8.49716C13.9104 9.40368 13.6368 10.0462 13.9372 11.7019C13.9548 11.7989 13.8604 11.88 13.7681 11.8455L13.1541 11.6161Z" fill="url(#paint13_linear_100_3441)"/>
<g filter="url(#filter6_ddi_100_3441)">
<path d="M11.2382 18.2882C11.2382 16.2273 12.9089 14.5566 14.9698 14.5566H18.7013C18.8616 17.6644 18.8616 19.2985 18.7013 22.0198H14.9698C12.9089 22.0198 11.2382 20.3491 11.2382 18.2882V18.2882Z" fill="url(#paint14_linear_100_3441)"/>
</g>
<path opacity="0.3" d="M14.706 22.0056L18.7108 22.0166V20.3135H14.0025C13.0427 20.3135 12.5844 21.3521 13.4691 21.7242C13.9031 21.9067 14.3339 21.9958 14.706 22.0056Z" fill="url(#paint15_linear_100_3441)"/>
<path opacity="0.4" d="M13.6535 15.9222C13.6244 15.9119 13.5914 15.9226 13.573 15.9474C12.8926 16.8663 12.88 16.9108 12.8317 17.9974C12.8303 18.0285 12.8495 18.0577 12.8789 18.068L13.4173 18.2565C13.4658 18.2735 13.5156 18.2346 13.5109 18.1834C13.4167 17.1393 13.4467 17.0699 14.2231 16.2263C14.2575 16.189 14.2426 16.1284 14.1947 16.1117L13.6535 15.9222Z" fill="url(#paint16_linear_100_3441)"/>
</g>
</g>
<defs>
<filter id="filter0_d_100_3441" x="0.191735" y="0.460938" width="37.0047" height="37.0689" filterUnits="userSpaceOnUse" color-interpolation-filters="sRGB">
<feFlood flood-opacity="0" result="BackgroundImageFix"/>
<feColorMatrix in="SourceAlpha" type="matrix" values="0 0 0 0 0 0 0 0 0 0 0 0 0 0 0 0 0 0 127 0" result="hardAlpha"/>
<feOffset dy="0.330136"/>
<feGaussianBlur stdDeviation="0.133045"/>
<feColorMatrix type="matrix" values="0 0 0 0 0 0 0 0 0 0 0 0 0 0 0 0 0 0 0.0361654 0"/>
<feBlend mode="normal" in2="BackgroundImageFix" result="effect1_dropShadow_100_3441"/>
<feBlend mode="normal" in="SourceGraphic" in2="effect1_dropShadow_100_3441" result="shape"/>
</filter>
<filter id="filter1_dii_100_3441" x="8.3617" y="20.6953" width="13.2162" height="13.2164" filterUnits="userSpaceOnUse" color-interpolation-filters="sRGB">
<feFlood flood-opacity="0" result="BackgroundImageFix"/>
<feColorMatrix in="SourceAlpha" type="matrix" values="0 0 0 0 0 0 0 0 0 0 0 0 0 0 0 0 0 0 127 0" result="hardAlpha"/>
<feOffset dy="1.54888"/>
<feGaussianBlur stdDeviation="1.43825"/>
<feColorMatrix type="matrix" values="0 0 0 0 0 0 0 0 0 0 0 0 0 0 0 0 0 0 0.25 0"/>
<feBlend mode="normal" in2="BackgroundImageFix" result="effect1_dropShadow_100_3441"/>
<feBlend mode="normal" in="SourceGraphic" in2="effect1_dropShadow_100_3441" result="shape"/>
<feColorMatrix in="SourceAlpha" type="matrix" values="0 0 0 0 0 0 0 0 0 0 0 0 0 0 0 0 0 0 127 0" result="hardAlpha"/>
<feOffset dx="0.377086" dy="-0.628477"/>
<feGaussianBlur stdDeviation="0.471357"/>
<feComposite in2="hardAlpha" operator="arithmetic" k2="-1" k3="1"/>
<feColorMatrix type="matrix" values="0 0 0 0 0.054902 0 0 0 0 0.717647 0 0 0 0 0.560784 0 0 0 1 0"/>
<feBlend mode="normal" in2="shape" result="effect2_innerShadow_100_3441"/>
<feColorMatrix in="SourceAlpha" type="matrix" values="0 0 0 0 0 0 0 0 0 0 0 0 0 0 0 0 0 0 127 0" result="hardAlpha"/>
<feOffset dx="0.207397" dy="0.213682"/>
<feGaussianBlur stdDeviation="0.358232"/>
<feComposite in2="hardAlpha" operator="arithmetic" k2="-1" k3="1"/>
<feColorMatrix type="matrix" values="0 0 0 0 0.0567361 0 0 0 0 0.716667 0 0 0 0 0.55954 0 0 0 1 0"/>
<feBlend mode="normal" in2="effect2_innerShadow_100_3441" result="effect3_innerShadow_100_3441"/>
</filter>
<filter id="filter2_di_100_3441" x="18.2614" y="14.2453" width="8.33675" height="8.09186" filterUnits="userSpaceOnUse" color-interpolation-filters="sRGB">
<feFlood flood-opacity="0" result="BackgroundImageFix"/>
<feColorMatrix in="SourceAlpha" type="matrix" values="0 0 0 0 0 0 0 0 0 0 0 0 0 0 0 0 0 0 127 0" result="hardAlpha"/>
<feOffset dx="-0.125695"/>
<feGaussianBlur stdDeviation="0.157119"/>
<feColorMatrix type="matrix" values="0 0 0 0 0.4 0 0 0 0 0.211765 0 0 0 0 0.34902 0 0 0 0.55 0"/>
<feBlend mode="normal" in2="BackgroundImageFix" result="effect1_dropShadow_100_3441"/>
<feBlend mode="normal" in="SourceGraphic" in2="effect1_dropShadow_100_3441" result="shape"/>
<feColorMatrix in="SourceAlpha" type="matrix" values="0 0 0 0 0 0 0 0 0 0 0 0 0 0 0 0 0 0 127 0" result="hardAlpha"/>
<feOffset dx="0.433649" dy="-0.188543"/>
<feGaussianBlur stdDeviation="0.345662"/>
<feComposite in2="hardAlpha" operator="arithmetic" k2="-1" k3="1"/>
<feColorMatrix type="matrix" values="0 0 0 0 0.027451 0 0 0 0 0.333333 0 0 0 0 0.972549 0 0 0 0.7 0"/>
<feBlend mode="normal" in2="shape" result="effect2_innerShadow_100_3441"/>
</filter>
<filter id="filter3_di_100_3441" x="18.3556" y="7.01152" width="8.09161" height="8.09186" filterUnits="userSpaceOnUse" color-interpolation-filters="sRGB">
<feFlood flood-opacity="0" result="BackgroundImageFix"/>
<feColorMatrix in="SourceAlpha" type="matrix" values="0 0 0 0 0 0 0 0 0 0 0 0 0 0 0 0 0 0 127 0" result="hardAlpha"/>
<feOffset dx="-0.0314238" dy="0.22908"/>
<feGaussianBlur stdDeviation="0.157119"/>
<feColorMatrix type="matrix" values="0 0 0 0 0.4 0 0 0 0 0.211765 0 0 0 0 0.34902 0 0 0 0.55 0"/>
<feBlend mode="normal" in2="BackgroundImageFix" result="effect1_dropShadow_100_3441"/>
<feBlend mode="normal" in="SourceGraphic" in2="effect1_dropShadow_100_3441" result="shape"/>
<feColorMatrix in="SourceAlpha" type="matrix" values="0 0 0 0 0 0 0 0 0 0 0 0 0 0 0 0 0 0 127 0" result="hardAlpha"/>
<feOffset dx="-0.251391" dy="0.251391"/>
<feGaussianBlur stdDeviation="0.282815"/>
<feComposite in2="hardAlpha" operator="arithmetic" k2="-1" k3="1"/>
<feColorMatrix type="matrix" values="0 0 0 0 1 0 0 0 0 0.8 0 0 0 0 0.811765 0 0 0 1 0"/>
<feBlend mode="normal" in2="shape" result="effect2_innerShadow_100_3441"/>
</filter>
<filter id="filter4_b_100_3441" x="22.2336" y="7.59264" width="3.81652" height="2.69607" filterUnits="userSpaceOnUse" color-interpolation-filters="sRGB">
<feFlood flood-opacity="0" result="BackgroundImageFix"/>
<feGaussianBlur in="BackgroundImageFix" stdDeviation="0.188543"/>
<feComposite in2="SourceAlpha" operator="in" result="effect1_backgroundBlur_100_3441"/>
<feBlend mode="normal" in="SourceGraphic" in2="effect1_backgroundBlur_100_3441" result="shape"/>
</filter>
<filter id="filter5_ii_100_3441" x="11.2382" y="7.09668" width="8.09164" height="7.48852" filterUnits="userSpaceOnUse" color-interpolation-filters="sRGB">
<feFlood flood-opacity="0" result="BackgroundImageFix"/>
<feBlend mode="normal" in="SourceGraphic" in2="BackgroundImageFix" result="shape"/>
<feColorMatrix in="SourceAlpha" type="matrix" values="0 0 0 0 0 0 0 0 0 0 0 0 0 0 0 0 0 0 127 0" result="hardAlpha"/>
<feOffset dx="0.628477" dy="0.0251391"/>
<feGaussianBlur stdDeviation="0.421079"/>
<feComposite in2="hardAlpha" operator="arithmetic" k2="-1" k3="1"/>
<feColorMatrix type="matrix" values="0 0 0 0 0.954167 0 0 0 0 0.440652 0 0 0 0 0.151076 0 0 0 1 0"/>
<feBlend mode="normal" in2="shape" result="effect1_innerShadow_100_3441"/>
<feColorMatrix in="SourceAlpha" type="matrix" values="0 0 0 0 0 0 0 0 0 0 0 0 0 0 0 0 0 0 127 0" result="hardAlpha"/>
<feOffset dy="0.314238"/>
<feGaussianBlur stdDeviation="0.0125695"/>
<feComposite in2="hardAlpha" operator="arithmetic" k2="-1" k3="1"/>
<feColorMatrix type="matrix" values="0 0 0 0 1 0 0 0 0 0.623446 0 0 0 0 0.225 0 0 0 0.5 0"/>
<feBlend mode="normal" in2="effect1_innerShadow_100_3441" result="effect2_innerShadow_100_3441"/>
</filter>
<filter id="filter6_ddi_100_3441" x="10.7983" y="13.991" width="8.46321" height="8.57233" filterUnits="userSpaceOnUse" color-interpolation-filters="sRGB">
<feFlood flood-opacity="0" result="BackgroundImageFix"/>
<feColorMatrix in="SourceAlpha" type="matrix" values="0 0 0 0 0 0 0 0 0 0 0 0 0 0 0 0 0 0 127 0" result="hardAlpha"/>
<feOffset dy="-0.125695"/>
<feGaussianBlur stdDeviation="0.219967"/>
<feColorMatrix type="matrix" values="0 0 0 0 0 0 0 0 0 0 0 0 0 0 0 0 0 0 0.25 0"/>
<feBlend mode="normal" in2="BackgroundImageFix" result="effect1_dropShadow_100_3441"/>
<feColorMatrix in="SourceAlpha" type="matrix" values="0 0 0 0 0 0 0 0 0 0 0 0 0 0 0 0 0 0 127 0" result="hardAlpha"/>
<feOffset dy="0.22908"/>
<feGaussianBlur stdDeviation="0.157119"/>
<feColorMatrix type="matrix" values="0 0 0 0 0.4 0 0 0 0 0.211765 0 0 0 0 0.34902 0 0 0 0.55 0"/>
<feBlend mode="normal" in2="effect1_dropShadow_100_3441" result="effect2_dropShadow_100_3441"/>
<feBlend mode="normal" in="SourceGraphic" in2="effect2_dropShadow_100_3441" result="shape"/>
<feColorMatrix in="SourceAlpha" type="matrix" values="0 0 0 0 0 0 0 0 0 0 0 0 0 0 0 0 0 0 127 0" result="hardAlpha"/>
<feOffset dx="0.307954" dy="-0.125695"/>
<feGaussianBlur stdDeviation="0.439934"/>
<feComposite in2="hardAlpha" operator="arithmetic" k2="-1" k3="1"/>
<feColorMatrix type="matrix" values="0 0 0 0 0.329883 0 0 0 0 0.027451 0 0 0 0 0.972549 0 0 0 0.5 0"/>
<feBlend mode="normal" in2="shape" result="effect3_innerShadow_100_3441"/>
</filter>
<radialGradient id="paint0_angular_100_3441" cx="0" cy="0" r="1" gradientUnits="userSpaceOnUse" gradientTransform="translate(11.1654 31.7387) rotate(-59.3713) scale(31.8372)">
<stop offset="0.135417" stop-color="#D68B1B"/>
<stop offset="0.1875" stop-color="#EEC63A" stop-opacity="0.47"/>
<stop offset="1" stop-color="#FBD75B" stop-opacity="0"/>
</radialGradient>
<linearGradient id="paint1_linear_100_3441" x1="17.6822" y1="22.0229" x2="12.4932" y2="28.6433" gradientUnits="userSpaceOnUse">
<stop stop-color="#3CE4B8"/>
<stop offset="0.453874" stop-color="#0CE7A2"/>
<stop offset="1" stop-color="#15CA82"/>
</linearGradient>
<linearGradient id="paint2_linear_100_3441" x1="14.8425" y1="23.7104" x2="14.0241" y2="26.3094" gradientUnits="userSpaceOnUse">
<stop stop-color="white" stop-opacity="0.8"/>
<stop offset="0.0001" stop-color="white" stop-opacity="0.8"/>
<stop offset="1" stop-color="white" stop-opacity="0.4"/>
</linearGradient>
<linearGradient id="paint3_linear_100_3441" x1="16.3846" y1="24.3001" x2="16.2674" y2="22.772" gradientUnits="userSpaceOnUse">
<stop stop-color="white"/>
<stop offset="1" stop-color="white" stop-opacity="0.8"/>
</linearGradient>
<linearGradient id="paint4_linear_100_3441" x1="24.7661" y1="21.6142" x2="20.5553" y2="15.0843" gradientUnits="userSpaceOnUse">
<stop stop-color="#10E0FC"/>
<stop offset="0.520833" stop-color="#40F2FF"/>
<stop offset="1" stop-color="#10E0FC"/>
</linearGradient>
<linearGradient id="paint5_linear_100_3441" x1="20.8674" y1="19.2508" x2="22.1879" y2="17.0207" gradientUnits="userSpaceOnUse">
<stop stop-color="white" stop-opacity="0.3"/>
<stop offset="1" stop-color="white"/>
</linearGradient>
<linearGradient id="paint6_linear_100_3441" x1="25.1872" y1="15.9705" x2="23.0752" y2="15.7183" gradientUnits="userSpaceOnUse">
<stop stop-color="white"/>
<stop offset="1" stop-color="white" stop-opacity="0.3"/>
</linearGradient>
<linearGradient id="paint7_linear_100_3441" x1="22.4313" y1="7.09668" x2="22.4329" y2="14.5598" gradientUnits="userSpaceOnUse">
<stop stop-color="#FFC6C8"/>
<stop offset="0.0001" stop-color="#FFB9BC"/>
<stop offset="0.508975" stop-color="#FFAAAD"/>
<stop offset="1" stop-color="#FF98A4"/>
</linearGradient>
<linearGradient id="paint8_linear_100_3441" x1="22.1016" y1="7.09668" x2="21.4491" y2="14.5065" gradientUnits="userSpaceOnUse">
<stop stop-color="#BE6B9B" stop-opacity="0"/>
<stop offset="1" stop-color="#BE6B9B"/>
</linearGradient>
<linearGradient id="paint9_linear_100_3441" x1="21.8688" y1="12.6963" x2="21.8248" y2="14.5629" gradientUnits="userSpaceOnUse">
<stop stop-color="#BE6B9B" stop-opacity="0"/>
<stop offset="1" stop-color="#BE6B9B"/>
</linearGradient>
<linearGradient id="paint10_linear_100_3441" x1="25.2565" y1="8.64089" x2="22.7229" y2="8.24432" gradientUnits="userSpaceOnUse">
<stop stop-color="white"/>
<stop offset="1" stop-color="white"/>
</linearGradient>
<linearGradient id="paint11_linear_100_3441" x1="15.98" y1="7.09667" x2="15.8639" y2="14.5612" gradientUnits="userSpaceOnUse">
<stop stop-color="#FE8906"/>
<stop offset="0.418177" stop-color="#FE8103"/>
<stop offset="0.760417" stop-color="#FB6D0E"/>
<stop offset="1" stop-color="#E03A1A"/>
</linearGradient>
<linearGradient id="paint12_linear_100_3441" x1="15.5352" y1="12.8599" x2="15.5719" y2="14.5632" gradientUnits="userSpaceOnUse">
<stop stop-color="#BD2D17" stop-opacity="0"/>
<stop offset="1" stop-color="#D5321A"/>
</linearGradient>
<linearGradient id="paint13_linear_100_3441" x1="14.7367" y1="8.55148" x2="14.7367" y2="12.0238" gradientUnits="userSpaceOnUse">
<stop stop-color="white"/>
<stop offset="1" stop-color="white" stop-opacity="0.1"/>
</linearGradient>
<linearGradient id="paint14_linear_100_3441" x1="15.0299" y1="14.5566" x2="15.0299" y2="22.0198" gradientUnits="userSpaceOnUse">
<stop stop-color="#BF6FFB"/>
<stop offset="0.505208" stop-color="#B576FD"/>
<stop offset="1" stop-color="#9865F6"/>
</linearGradient>
<linearGradient id="paint15_linear_100_3441" x1="15.5792" y1="20.3135" x2="15.5719" y2="22.0166" gradientUnits="userSpaceOnUse">
<stop stop-color="#7D5BEF" stop-opacity="0"/>
<stop offset="1" stop-color="#0B0B38"/>
</linearGradient>
<linearGradient id="paint16_linear_100_3441" x1="13.1138" y1="18.1452" x2="14.2517" y2="16.0628" gradientUnits="userSpaceOnUse">
<stop stop-color="white" stop-opacity="0.1"/>
<stop offset="1" stop-color="white" stop-opacity="0.6"/>
</linearGradient>
<clipPath id="clip0_100_3441">
<path d="M0.457825 13.8066C0.457825 9.08593 0.457825 6.72562 1.39108 4.92903C2.17752 3.41507 3.41195 2.18063 4.92592 1.39419C6.72251 0.460938 9.08282 0.460938 13.8034 0.460938H23.5847C28.3053 0.460938 30.6656 0.460938 32.4622 1.39419C33.9762 2.18063 35.2106 3.41507 35.9971 4.92903C36.9303 6.72562 36.9303 9.08593 36.9303 13.8066V23.5878C36.9303 28.3085 36.9303 30.6688 35.9971 32.4654C35.2106 33.9793 33.9762 35.2137 32.4622 36.0002C30.6656 36.9334 28.3053 36.9334 23.5847 36.9334H13.8034C9.08282 36.9334 6.72251 36.9334 4.92592 36.0002C3.41195 35.2137 2.17752 33.9793 1.39108 32.4654C0.457825 30.6688 0.457825 28.3084 0.457825 23.5878V13.8066Z" fill="white"/>
</clipPath>
</defs>
</svg>
