<svg width="40" height="41" viewBox="0 0 40 41" fill="none" xmlns="http://www.w3.org/2000/svg">
<g clip-path="url(#clip0_262_10822)">
<path d="M39.1305 30.75C39.1305 31.9582 38.6724 33.1169 37.857 33.9713C37.0416 34.8256 35.9357 35.3056 34.7826 35.3056H26.087V5.69446H34.7826C35.9357 5.69446 37.0416 6.17442 37.857 7.02875C38.6724 7.88308 39.1305 9.0418 39.1305 10.25V30.75Z" fill="#ED2939"/>
<path d="M4.34783 5.69446C3.19471 5.69446 2.08882 6.17442 1.27345 7.02875C0.458073 7.88308 0 9.0418 0 10.25L0 30.75C0 31.9582 0.458073 33.1169 1.27345 33.9713C2.08882 34.8256 3.19471 35.3056 4.34783 35.3056H13.0435V5.69446H4.34783Z" fill="#002495"/>
<path d="M13.0435 5.69446H26.0869V35.3056H13.0435V5.69446Z" fill="#EEEEEE"/>
</g>
<defs>
<clipPath id="clip0_262_10822">
<rect width="39.1304" height="41" fill="white"/>
</clipPath>
</defs>
</svg>
