<svg width="30" height="30" viewBox="0 0 30 30" fill="none" xmlns="http://www.w3.org/2000/svg">
<path d="M2.95502 16.1975C2.48002 12.9013 2.24252 11.2525 2.91877 9.84375C3.59377 8.435 5.03252 7.5775 7.90877 5.865L9.64002 4.83375C12.25 3.2775 13.5575 2.5 15 2.5C16.4425 2.5 17.7488 3.2775 20.36 4.83375L22.0913 5.865C24.9663 7.5775 26.405 8.435 27.0813 9.84375C27.7563 11.2525 27.5188 12.9013 27.0438 16.1975L26.6963 18.6188C26.0875 22.8538 25.7825 24.97 24.3138 26.235C22.845 27.5 20.6913 27.5 16.3825 27.5H13.6175C9.30877 27.5 7.15502 27.5 5.68627 26.235C4.21752 24.97 3.91252 22.8538 3.30377 18.6188L2.95502 16.1975Z" stroke="#737373" stroke-width="1.5"/>
<path d="M18.75 22.5H11.25" stroke="#737373" stroke-width="1.5" stroke-linecap="round"/>
</svg>
