<svg width="31" height="33" viewBox="0 0 31 33" fill="none" xmlns="http://www.w3.org/2000/svg">
<path d="M2.97342 17.7401C2.49546 14.1299 2.25648 12.3242 2.93695 10.7813C3.61615 9.23834 5.06387 8.29917 7.95804 6.42357L9.70007 5.29411C12.3263 3.58965 13.642 2.7381 15.0935 2.7381C16.545 2.7381 17.8593 3.58965 20.4869 5.29411L22.2289 6.42357C25.1218 8.29917 26.5695 9.23834 27.25 10.7813C27.9292 12.3242 27.6902 14.1299 27.2123 17.7401L26.8626 20.392C26.25 25.0303 25.9431 27.3481 24.4652 28.7336C22.9873 30.1191 20.8202 30.1191 16.4846 30.1191H13.7024C9.36676 30.1191 7.19959 30.1191 5.72169 28.7336C4.24379 27.3481 3.93689 25.0303 3.32434 20.392L2.97342 17.7401Z" stroke="#5A0E0E" stroke-width="1.5"/>
<path d="M18.8668 24.6429H11.3201" stroke="#5A0E0E" stroke-width="1.5" stroke-linecap="round"/>
</svg>
