<svg width="40" height="40" viewBox="0 0 40 40" fill="none" xmlns="http://www.w3.org/2000/svg">
<path d="M23.3332 3.3335H9.99984C9.11578 3.3335 8.26794 3.68469 7.64281 4.30981C7.01769 4.93493 6.6665 5.78277 6.6665 6.66683V33.3335C6.6665 34.2176 7.01769 35.0654 7.64281 35.6905C8.26794 36.3156 9.11578 36.6668 9.99984 36.6668H29.9998C30.8839 36.6668 31.7317 36.3156 32.3569 35.6905C32.982 35.0654 33.3332 34.2176 33.3332 33.3335V13.3335L23.3332 3.3335ZM15.3982 27.4102C15.3982 29.3302 14.4798 30.0002 13.0015 30.0002C12.6515 30.0002 12.1915 29.9402 11.8932 29.8385L12.0615 28.6102C12.2732 28.6802 12.5432 28.7302 12.8432 28.7302C13.4832 28.7302 13.8815 28.4402 13.8815 27.3902V23.1518H15.3998L15.3982 27.4102ZM20.8882 26.8018C20.3665 27.2902 19.5998 27.5118 18.6998 27.5118C18.4998 27.5118 18.3198 27.5002 18.1798 27.4802V29.8885H16.6698V23.2418C17.3515 23.1392 18.0405 23.0929 18.7298 23.1035C19.6682 23.1035 20.3382 23.2818 20.7865 23.6418C21.2182 23.9818 21.5082 24.5418 21.5082 25.2018C21.5082 25.8618 21.2865 26.4218 20.8882 26.8018ZM28.1065 29.5802C27.6398 29.7402 26.7482 29.9602 25.8582 29.9602C24.6298 29.9602 23.7398 29.6502 23.1198 29.0502C22.5015 28.4702 22.1615 27.5918 22.1698 26.6018C22.1815 24.3618 23.8082 23.0835 26.0182 23.0835C26.8865 23.0835 27.5582 23.2552 27.8865 23.4135L27.5682 24.6318C27.1982 24.4718 26.7398 24.3418 25.9998 24.3418C24.7315 24.3418 23.7698 25.0618 23.7698 26.5218C23.7698 27.9102 24.6415 28.7302 25.8882 28.7302C26.2398 28.7302 26.5182 28.6902 26.6398 28.6285V27.2185H25.5998V26.0302H28.1065V29.5802ZM23.3332 15.0002H21.6665V6.66683L29.9998 15.0002H23.3332Z" fill="#408A7E"/>
<path d="M18.8085 24.2534C18.4985 24.2534 18.2885 24.2834 18.1802 24.3134V26.3018C18.3085 26.3318 18.4702 26.3401 18.6918 26.3401C19.4985 26.3401 19.9985 25.9301 19.9985 25.2418C19.9985 24.6218 19.5702 24.2534 18.8085 24.2534Z" fill="#2C2728"/>
</svg>
