<svg width="40" height="40" viewBox="0 0 40 40" fill="none" xmlns="http://www.w3.org/2000/svg">
<path fill-rule="evenodd" clip-rule="evenodd" d="M20 3.3331C18.071 3.33291 16.1831 3.89056 14.5637 4.93886C12.9444 5.98716 11.6628 7.48137 10.8733 9.24144C10.761 9.49378 10.646 9.74491 10.5283 9.99477L10.495 9.99644C10.3883 9.99977 10.2433 9.99977 9.99999 9.99977C8.23188 9.99977 6.53619 10.7021 5.28595 11.9524C4.03571 13.2026 3.33333 14.8983 3.33333 16.6664C3.33333 18.4345 4.03571 20.1302 5.28595 21.3805C6.53619 22.6307 8.23188 23.3331 9.99999 23.3331H10.2867L13.62 19.9998H9.99999C9.11594 19.9998 8.26809 19.6486 7.64297 19.0235C7.01785 18.3983 6.66666 17.5505 6.66666 16.6664C6.66666 15.7824 7.01785 14.9345 7.64297 14.3094C8.26809 13.6843 9.11594 13.3331 9.99999 13.3331H10.1067C10.4533 13.3331 10.8567 13.3348 11.19 13.2664C11.6045 13.1938 12.0008 13.0409 12.3567 12.8164C12.7583 12.5564 13.035 12.2331 13.245 11.9381C13.3737 11.7481 13.4858 11.5474 13.58 11.3381C13.6683 11.1548 13.7767 10.9131 13.9067 10.6248L13.9133 10.6081C14.439 9.43337 15.2934 8.43586 16.3735 7.73594C17.4535 7.03601 18.713 6.66358 20 6.66358C21.287 6.66358 22.5465 7.03601 23.6265 7.73594C24.7066 8.43586 25.561 9.43337 26.0867 10.6081L26.095 10.6248C26.2233 10.9131 26.3317 11.1531 26.42 11.3381C26.4967 11.4998 26.61 11.7348 26.755 11.9381C26.965 12.2314 27.24 12.5564 27.6433 12.8181C28.0467 13.0781 28.455 13.1964 28.81 13.2681C29.1433 13.3348 29.5467 13.3348 29.8933 13.3348L30 13.3331C30.884 13.3331 31.7319 13.6843 32.357 14.3094C32.9821 14.9345 33.3333 15.7824 33.3333 16.6664C33.3333 17.5505 32.9821 18.3983 32.357 19.0235C31.7319 19.6486 30.884 19.9998 30 19.9998H26.38L29.7133 23.3331H30C31.7681 23.3331 33.4638 22.6307 34.714 21.3805C35.9643 20.1302 36.6667 18.4345 36.6667 16.6664C36.6667 14.8983 35.9643 13.2026 34.714 11.9524C33.4638 10.7021 31.7681 9.99977 30 9.99977C29.7567 9.99977 29.6117 9.99977 29.505 9.99644H29.4717C28.7791 8.04049 27.4954 6.34835 25.7983 5.15447C24.1013 3.96059 22.0749 3.32407 20 3.3331Z" fill="black"/>
<path d="M20 20.0002L18.8217 18.8219L20 17.6436L21.1783 18.8219L20 20.0002ZM21.6667 35.0002C21.6667 35.4422 21.4911 35.8662 21.1785 36.1787C20.8659 36.4913 20.442 36.6669 20 36.6669C19.558 36.6669 19.134 36.4913 18.8215 36.1787C18.5089 35.8662 18.3333 35.4422 18.3333 35.0002H21.6667ZM12.155 25.4886L18.8217 18.8219L21.1783 21.1786L14.5117 27.8452L12.155 25.4886ZM21.1783 18.8219L27.845 25.4886L25.4883 27.8452L18.8217 21.1786L21.1783 18.8219ZM21.6667 20.0002V35.0002H18.3333V20.0002H21.6667Z" fill="black"/>
</svg>
