<svg width="40" height="40" viewBox="0 0 40 40" fill="none" xmlns="http://www.w3.org/2000/svg">
<path fill-rule="evenodd" clip-rule="evenodd" d="M20.0002 3.3331C18.0711 3.33291 16.1832 3.89056 14.5639 4.93886C12.9446 5.98716 11.663 7.48137 10.8735 9.24144C10.7612 9.49378 10.6462 9.74491 10.5285 9.99477L10.4952 9.99644C10.3885 9.99977 10.2435 9.99977 10.0002 9.99977C8.23205 9.99977 6.53636 10.7021 5.28612 11.9524C4.03588 13.2026 3.3335 14.8983 3.3335 16.6664C3.3335 18.4345 4.03588 20.1302 5.28612 21.3805C6.53636 22.6307 8.23205 23.3331 10.0002 23.3331H10.2868L13.6202 19.9998H10.0002C9.11611 19.9998 8.26826 19.6486 7.64314 19.0235C7.01802 18.3983 6.66683 17.5505 6.66683 16.6664C6.66683 15.7824 7.01802 14.9345 7.64314 14.3094C8.26826 13.6843 9.11611 13.3331 10.0002 13.3331H10.1068C10.4535 13.3331 10.8568 13.3348 11.1902 13.2664C11.6046 13.1938 12.0009 13.0409 12.3568 12.8164C12.7585 12.5564 13.0352 12.2331 13.2452 11.9381C13.3739 11.7481 13.486 11.5474 13.5802 11.3381C13.6685 11.1548 13.7768 10.9131 13.9068 10.6248L13.9135 10.6081C14.4392 9.43337 15.2936 8.43586 16.3736 7.73594C17.4537 7.03601 18.7132 6.66358 20.0002 6.66358C21.2872 6.66358 22.5467 7.03601 23.6267 7.73594C24.7067 8.43586 25.5611 9.43337 26.0868 10.6081L26.0952 10.6248C26.2235 10.9131 26.3318 11.1531 26.4202 11.3381C26.4968 11.4998 26.6102 11.7348 26.7552 11.9381C26.9652 12.2314 27.2402 12.5564 27.6435 12.8181C28.0468 13.0781 28.4552 13.1964 28.8102 13.2681C29.1435 13.3348 29.5468 13.3348 29.8935 13.3348L30.0002 13.3331C30.8842 13.3331 31.7321 13.6843 32.3572 14.3094C32.9823 14.9345 33.3335 15.7824 33.3335 16.6664C33.3335 17.5505 32.9823 18.3983 32.3572 19.0235C31.7321 19.6486 30.8842 19.9998 30.0002 19.9998H26.3802L29.7135 23.3331H30.0002C31.7683 23.3331 33.464 22.6307 34.7142 21.3805C35.9644 20.1302 36.6668 18.4345 36.6668 16.6664C36.6668 14.8983 35.9644 13.2026 34.7142 11.9524C33.464 10.7021 31.7683 9.99977 30.0002 9.99977C29.7568 9.99977 29.6118 9.99977 29.5052 9.99644H29.4718C28.7793 8.04049 27.4956 6.34835 25.7985 5.15447C24.1014 3.96059 22.0751 3.32407 20.0002 3.3331Z" fill="black"/>
<path d="M19.9998 20.0002L18.8215 18.8219L19.9998 17.6436L21.1781 18.8219L19.9998 20.0002ZM21.6665 35.0002C21.6665 35.4422 21.4909 35.8662 21.1783 36.1787C20.8657 36.4913 20.4418 36.6669 19.9998 36.6669C19.5578 36.6669 19.1338 36.4913 18.8213 36.1787C18.5087 35.8662 18.3331 35.4422 18.3331 35.0002H21.6665ZM12.1548 25.4886L18.8215 18.8219L21.1781 21.1786L14.5115 27.8452L12.1548 25.4886ZM21.1781 18.8219L27.8448 25.4886L25.4881 27.8452L18.8215 21.1786L21.1781 18.8219ZM21.6665 20.0002V35.0002H18.3331V20.0002H21.6665Z" fill="black"/>
</svg>
