<svg width="30" height="30" viewBox="0 0 30 30" fill="none" xmlns="http://www.w3.org/2000/svg">
<path d="M26.9128 18.0872L24.375 15.5494V12.1875C24.3721 9.86422 23.5078 7.62455 21.9493 5.90155C20.3909 4.17855 18.2488 3.09462 15.9375 2.85938V0.9375H14.0625V2.85938C11.7512 3.09462 9.60915 4.17855 8.05066 5.90155C6.49217 7.62455 5.62791 9.86422 5.625 12.1875V15.5494L3.08719 18.0872C2.91136 18.263 2.81255 18.5014 2.8125 18.75V21.5625C2.8125 21.8111 2.91127 22.0496 3.08709 22.2254C3.2629 22.4012 3.50136 22.5 3.75 22.5H10.3125V23.2284C10.2921 24.4178 10.7113 25.5728 11.4898 26.4722C12.2683 27.3716 13.3513 27.9521 14.5312 28.1025C15.183 28.1671 15.841 28.0946 16.4631 27.8897C17.0851 27.6847 17.6573 27.3519 18.143 26.9125C18.6287 26.4731 19.017 25.9369 19.283 25.3384C19.549 24.74 19.6868 24.0924 19.6875 23.4375V22.5H26.25C26.4986 22.5 26.7371 22.4012 26.9129 22.2254C27.0887 22.0496 27.1875 21.8111 27.1875 21.5625V18.75C27.1874 18.5014 27.0886 18.263 26.9128 18.0872ZM17.8125 23.4375C17.8125 24.1834 17.5162 24.8988 16.9887 25.4262C16.4613 25.9537 15.7459 26.25 15 26.25C14.2541 26.25 13.5387 25.9537 13.0113 25.4262C12.4838 24.8988 12.1875 24.1834 12.1875 23.4375V22.5H17.8125V23.4375ZM25.3125 20.625H4.6875V19.1381L7.22531 16.6003C7.40114 16.4245 7.49995 16.1861 7.5 15.9375V12.1875C7.5 10.1984 8.29018 8.29072 9.6967 6.8842C11.1032 5.47768 13.0109 4.6875 15 4.6875C16.9891 4.6875 18.8968 5.47768 20.3033 6.8842C21.7098 8.29072 22.5 10.1984 22.5 12.1875V15.9375C22.5001 16.1861 22.5989 16.4245 22.7747 16.6003L25.3125 19.1381V20.625Z" fill="#662828"/>
</svg>
