<svg width="40" height="40" viewBox="0 0 40 40" fill="none" xmlns="http://www.w3.org/2000/svg">
<rect width="40" height="40" rx="20" fill="#F8E4FD"/>
<path d="M17.375 30.4378V28.8753H22.0641V30.4378H17.375ZM28.3125 17.1565C28.3135 18.4241 28.033 19.6761 27.4912 20.8221C26.9494 21.968 26.1599 22.9794 25.1797 23.7831C24.2438 24.555 23.625 25.6472 23.625 26.8612V27.3128H15.8125V26.9628C15.8125 25.7909 15.3391 24.6347 14.4156 23.9112C13.1686 22.9358 12.2157 21.6345 11.6622 20.1512C11.1088 18.6679 10.9764 17.0604 11.2797 15.5065C11.8985 12.1753 14.5485 9.44872 17.8656 8.75653C19.1218 8.48091 20.4238 8.49043 21.6759 8.7844C22.9279 9.07836 24.0981 9.64929 25.1003 10.4552C26.1026 11.2611 26.9114 12.2814 27.4673 13.4411C28.0232 14.6009 28.312 15.8705 28.3125 17.1565ZM15.0313 17.9378C15.0313 14.7081 16.8844 12.469 19.7188 12.469V10.9065C15.9485 10.9065 13.4688 13.9034 13.4688 17.9378H15.0313Z" fill="#DB60FF"/>
</svg>
