<svg width="84" height="84" viewBox="0 0 84 84" fill="none" xmlns="http://www.w3.org/2000/svg">
<circle cx="42" cy="42" r="42" fill="url(#paint0_linear_706_7001)"/>
<g clip-path="url(#clip0_706_7001)">
<path d="M42 23.333C38.3081 23.333 34.6991 24.4278 31.6294 26.4789C28.5596 28.53 26.1671 31.4454 24.7543 34.8563C23.3414 38.2671 22.9718 42.0204 23.692 45.6414C24.4123 49.2623 26.1901 52.5884 28.8007 55.199C31.4113 57.8096 34.7373 59.5874 38.3583 60.3077C41.9793 61.0279 45.7325 60.6583 49.1434 59.2454C52.5543 57.8326 55.4697 55.44 57.5208 52.3703C59.5719 49.3006 60.6667 45.6916 60.6667 41.9997C60.6667 37.049 58.7 32.301 55.1993 28.8003C51.6987 25.2997 46.9507 23.333 42 23.333ZM42 58.333C38.7696 58.333 35.6117 57.3751 32.9257 55.5803C30.2397 53.7856 28.1462 51.2347 26.91 48.2502C25.6737 45.2656 25.3503 41.9816 25.9805 38.8132C26.6107 35.6448 28.1663 32.7345 30.4506 30.4503C32.7349 28.166 35.6452 26.6104 38.8135 25.9802C41.9819 25.35 45.266 25.6734 48.2505 26.9096C51.235 28.1459 53.7859 30.2394 55.5807 32.9254C57.3754 35.6114 58.3333 38.7692 58.3333 41.9997C58.3333 46.3315 56.6125 50.486 53.5494 53.5491C50.4863 56.6122 46.3319 58.333 42 58.333Z" fill="#00AC4F"/>
<path d="M53.6667 35.1166C53.4481 34.8993 53.1524 34.7773 52.8442 34.7773C52.536 34.7773 52.2403 34.8993 52.0217 35.1166L39.0717 48.0083L32.0717 41.0083C31.8582 40.7778 31.5618 40.6415 31.2479 40.6295C30.9339 40.6174 30.628 40.7306 30.3975 40.9441C30.167 41.1576 30.0307 41.4539 30.0187 41.7679C30.0067 42.0819 30.1198 42.3878 30.3333 42.6183L39.0717 51.3333L53.6667 36.7733C53.776 36.6648 53.8628 36.5358 53.922 36.3936C53.9813 36.2514 54.0118 36.0989 54.0118 35.9449C54.0118 35.7909 53.9813 35.6384 53.922 35.4963C53.8628 35.3541 53.776 35.2251 53.6667 35.1166Z" fill="#00AC4F"/>
</g>
<defs>
<linearGradient id="paint0_linear_706_7001" x1="74.55" y1="2.14197e-06" x2="42" y2="84" gradientUnits="userSpaceOnUse">
<stop stop-color="#D3FFE7"/>
<stop offset="1" stop-color="#EFFFF6"/>
</linearGradient>
<clipPath id="clip0_706_7001">
<rect width="42" height="42" fill="white" transform="translate(21 21)"/>
</clipPath>
</defs>
</svg>
