<svg width="30" height="30" viewBox="0 0 30 30" fill="none" xmlns="http://www.w3.org/2000/svg">
<path opacity="0.2" d="M26.25 9.375L15 15.9375L3.75 9.375L15 2.8125L26.25 9.375Z" fill="#737373"/>
<path d="M27.0598 20.1562C27.1836 20.371 27.2172 20.6262 27.1533 20.8658C27.0894 21.1055 26.9331 21.31 26.7188 21.4347L15.4688 27.9972C15.3254 28.0808 15.1624 28.1248 14.9965 28.1248C14.8305 28.1248 14.6676 28.0808 14.5242 27.9972L3.27422 21.4347C3.06292 21.3077 2.91014 21.1026 2.84895 20.8638C2.78775 20.625 2.82308 20.3717 2.94727 20.1588C3.07146 19.9458 3.27452 19.7904 3.51249 19.7261C3.75047 19.6618 4.0042 19.6938 4.21875 19.8151L15 26.1022L25.7812 19.8151C25.9961 19.6913 26.2513 19.6577 26.4909 19.7216C26.7306 19.7855 26.9351 19.9418 27.0598 20.1562ZM25.7812 14.1901L15 20.4773L4.21875 14.1901C4.00529 14.0839 3.75934 14.0629 3.53098 14.1316C3.30262 14.2002 3.109 14.3533 2.98954 14.5597C2.87007 14.7661 2.83374 15.0102 2.88793 15.2424C2.94213 15.4747 3.08278 15.6775 3.28125 15.8097L14.5312 22.3722C14.6746 22.4558 14.8376 22.4998 15.0035 22.4998C15.1695 22.4998 15.3324 22.4558 15.4758 22.3722L26.7258 15.8097C26.8338 15.7485 26.9287 15.6666 27.0048 15.5685C27.0809 15.4704 27.1368 15.3582 27.1692 15.2383C27.2016 15.1185 27.2098 14.9934 27.1935 14.8703C27.1771 14.7472 27.1365 14.6287 27.074 14.5214C27.0114 14.4142 26.9282 14.3204 26.8291 14.2456C26.7301 14.1708 26.6171 14.1164 26.4969 14.0856C26.3766 14.0547 26.2514 14.0481 26.1286 14.0661C26.0057 14.084 25.8877 14.1262 25.7812 14.1901ZM2.8125 9.37491C2.81287 9.2107 2.85637 9.04948 2.93863 8.90737C3.0209 8.76525 3.13904 8.64724 3.28125 8.56514L14.5312 2.00264C14.6746 1.91905 14.8376 1.875 15.0035 1.875C15.1695 1.875 15.3324 1.91905 15.4758 2.00264L26.7258 8.56514C26.8673 8.64771 26.9847 8.76592 27.0663 8.908C27.1479 9.05008 27.1909 9.21106 27.1909 9.37491C27.1909 9.53875 27.1479 9.69974 27.0663 9.84181C26.9847 9.98389 26.8673 10.1021 26.7258 10.1847L15.4758 16.7472C15.3324 16.8308 15.1695 16.8748 15.0035 16.8748C14.8376 16.8748 14.6746 16.8308 14.5312 16.7472L3.28125 10.1847C3.13904 10.1026 3.0209 9.98456 2.93863 9.84245C2.85637 9.70034 2.81287 9.53911 2.8125 9.37491ZM5.61094 9.37491L15 14.8523L24.3891 9.37491L15 3.89756L5.61094 9.37491Z" fill="#737373"/>
</svg>
