<svg width="84" height="84" viewBox="0 0 84 84" fill="none" xmlns="http://www.w3.org/2000/svg">
<circle cx="42" cy="42" r="42" fill="url(#paint0_linear_706_6978)"/>
<g clip-path="url(#clip0_706_6978)">
<path fill-rule="evenodd" clip-rule="evenodd" d="M46.1562 57.3438L31.5312 51.25V31.75L46.1562 25.6563V57.3438ZM29.3741 54.3115C28.9301 54.1263 28.5508 53.8139 28.284 53.4135C28.0173 53.0131 27.875 52.5428 27.875 52.0617V30.9384C27.875 30.4573 28.0173 29.9869 28.284 29.5866C28.5508 29.1862 28.9301 28.8738 29.3741 28.6885L44.7498 22.2804C45.3055 22.0488 45.9098 21.958 46.509 22.0161C47.1082 22.0742 47.6838 22.2793 48.1847 22.6133C48.6856 22.9473 49.0962 23.3998 49.3802 23.9307C49.6642 24.4615 49.8127 25.0543 49.8125 25.6563V26.875H52.8594C55.214 26.875 57.125 28.7836 57.125 31.1407V51.8594C57.125 52.9907 56.6756 54.0757 55.8756 54.8757C55.0757 55.6756 53.9907 56.125 52.8594 56.125H49.8125V57.3438C49.8127 57.9458 49.6642 58.5386 49.3802 59.0694C49.0962 59.6003 48.6856 60.0528 48.1847 60.3868C47.6838 60.7208 47.1082 60.9259 46.509 60.984C45.9098 61.0421 45.3055 60.9513 44.7498 60.7197L29.3741 54.3115ZM49.8125 52.4688H52.8594C53.021 52.4688 53.176 52.4046 53.2903 52.2903C53.4045 52.176 53.4688 52.021 53.4688 51.8594V31.1407C53.4688 30.979 53.4045 30.8241 53.2903 30.7098C53.176 30.5955 53.021 30.5313 52.8594 30.5313H49.8125V52.4688Z" fill="#0F5FC2"/>
</g>
<defs>
<linearGradient id="paint0_linear_706_6978" x1="74.55" y1="2.14197e-06" x2="42" y2="84" gradientUnits="userSpaceOnUse">
<stop stop-color="#CBF2FF"/>
<stop offset="1" stop-color="#EFFFF6"/>
</linearGradient>
<clipPath id="clip0_706_6978">
<rect width="39" height="39" fill="white" transform="translate(23 22)"/>
</clipPath>
</defs>
</svg>
