<svg width="39" height="40" viewBox="0 0 39 40" fill="none" xmlns="http://www.w3.org/2000/svg">
<rect width="39" height="40" rx="19.5" fill="#FBCECE" fill-opacity="0.66"/>
<path d="M20 30C18.6167 30 17.3167 29.7373 16.1 29.212C14.8833 28.6867 13.825 27.9743 12.925 27.075C12.025 26.175 11.3127 25.1167 10.788 23.9C10.2633 22.6833 10.0007 21.3833 10 20C10 18.6167 10.2627 17.3167 10.788 16.1C11.3133 14.8833 12.0257 13.825 12.925 12.925C13.825 12.025 14.8833 11.3127 16.1 10.788C17.3167 10.2633 18.6167 10.0007 20 10C21.3833 10 22.6833 10.2627 23.9 10.788C25.1167 11.3133 26.175 12.0257 27.075 12.925C27.975 13.825 28.6877 14.8833 29.213 16.1C29.7383 17.3167 30.0007 18.6167 30 20C30 21.3833 29.7373 22.6833 29.212 23.9C28.6867 25.1167 27.9743 26.175 27.075 27.075C26.175 27.975 25.1167 28.6877 23.9 29.213C22.6833 29.7383 21.3833 30.0007 20 30ZM20 28C20.9 28 21.7667 27.8543 22.6 27.563C23.4333 27.2717 24.2 26.8507 24.9 26.3L13.7 15.1C13.15 15.8 12.729 16.5667 12.437 17.4C12.145 18.2333 11.9993 19.1 12 20C12 22.2333 12.775 24.125 14.325 25.675C15.875 27.225 17.7667 28 20 28ZM26.3 24.9C26.85 24.2 27.271 23.4333 27.563 22.6C27.855 21.7667 28.0007 20.9 28 20C28 17.7667 27.225 15.875 25.675 14.325C24.125 12.775 22.2333 12 20 12C19.1 12 18.2333 12.1457 17.4 12.437C16.5667 12.7283 15.8 13.1493 15.1 13.7L26.3 24.9Z" fill="#D03513"/>
</svg>
