<svg width="40" height="40" viewBox="0 0 40 40" fill="none" xmlns="http://www.w3.org/2000/svg">
<rect width="40" height="40" rx="20" fill="#D2EDFD"/>
<path d="M28.3025 10.6833C28.7525 9.84 28.9888 8.92575 29 8H11C11.0135 8.92767 11.2588 9.84192 11.72 10.6833C12.188 11.5458 12.8787 12.3067 13.745 12.9067L17.84 15.82C18.47 16.2685 18.9785 16.832 19.325 17.4683C19.685 18.1008 19.8672 18.7966 19.865 19.5C19.8672 20.2034 19.685 20.8992 19.325 21.5317C18.9788 22.1677 18.4716 22.7306 17.84 23.18L13.745 26.0933C12.8798 26.6932 12.1871 27.4537 11.72 28.3167C11.2591 29.1574 11.0137 30.0722 11 31H29C28.988 30.0741 28.7505 29.1603 28.3025 28.3167C27.821 27.4559 27.1218 26.6966 26.255 26.0933L22.25 23.1608C21.6275 22.7162 21.1281 22.1599 20.7875 21.5317C20.39 20.906 20.1667 20.2109 20.135 19.5C20.1667 18.7891 20.39 18.094 20.7875 17.4683C21.1281 16.8401 21.6275 16.2838 22.25 15.8392L26.255 12.9067C27.1218 12.3034 27.821 11.5441 28.3025 10.6833Z" fill="#51A9F8"/>
</svg>
