<svg width="84" height="84" viewBox="0 0 84 84" fill="none" xmlns="http://www.w3.org/2000/svg">
<circle cx="42" cy="42" r="42" fill="url(#paint0_linear_706_7015)"/>
<path d="M42 25.25C33.3375 25.25 26.25 32.3375 26.25 41C26.25 49.6625 33.3375 56.75 42 56.75C50.6625 56.75 57.75 49.6625 57.75 41C57.75 32.3375 50.6625 25.25 42 25.25ZM42 28.75C44.7125 28.75 47.25 29.7125 49.35 31.2L32.2 48.35C30.7125 46.25 29.75 43.7125 29.75 41C29.75 34.2625 35.2625 28.75 42 28.75ZM42 53.25C39.2875 53.25 36.75 52.2875 34.65 50.8L51.8 33.65C53.2875 35.75 54.25 38.2875 54.25 41C54.25 47.7375 48.7375 53.25 42 53.25Z" fill="#DA001A"/>
<defs>
<linearGradient id="paint0_linear_706_7015" x1="74.55" y1="2.14197e-06" x2="42" y2="84" gradientUnits="userSpaceOnUse">
<stop stop-color="#FFA3CF"/>
<stop offset="1" stop-color="#FFD5F3"/>
</linearGradient>
</defs>
</svg>
