<svg width="40" height="40" viewBox="0 0 40 40" fill="none" xmlns="http://www.w3.org/2000/svg">
<rect width="40" height="40" rx="20" fill="#D9FFBB" fill-opacity="0.71"/>
<path d="M13.5 20.5V13C13.5 12.764 13.5 12.646 13.573 12.573C13.646 12.5 13.764 12.5 14 12.5H18.086C18.29 12.5 18.392 12.5 18.484 12.538C18.576 12.576 18.648 12.648 18.793 12.793L19.207 13.207C19.352 13.352 19.424 13.424 19.516 13.462C19.608 13.5 19.71 13.5 19.914 13.5H25.024C25.295 13.5 25.431 13.5 25.472 13.585C25.512 13.67 25.427 13.776 25.257 13.988L22.682 17.186C22.562 17.336 22.501 17.412 22.501 17.5C22.501 17.588 22.561 17.663 22.682 17.814L25.257 21.012C25.427 21.224 25.513 21.329 25.472 21.415C25.432 21.5 25.295 21.5 25.023 21.5H19.914C19.71 21.5 19.608 21.5 19.516 21.462C19.424 21.424 19.352 21.352 19.207 21.207L18.793 20.793C18.648 20.648 18.576 20.576 18.484 20.538C18.392 20.5 18.29 20.5 18.086 20.5H13.5ZM13.5 20.5V26.5" stroke="#509F01" stroke-linecap="round"/>
</svg>
