<svg width="84" height="84" viewBox="0 0 84 84" fill="none" xmlns="http://www.w3.org/2000/svg">
<circle cx="42" cy="42" r="42" fill="url(#paint0_linear_706_6990)"/>
<path d="M58.605 25.9C59.505 24.36 59.9775 22.6905 60 21H24C24.027 22.694 24.5175 24.3635 25.44 25.9C26.376 27.475 27.7575 28.8645 29.49 29.96L37.68 35.28C38.94 36.099 39.957 37.128 40.65 38.29C41.37 39.445 41.7345 40.7155 41.73 42C41.7345 43.2845 41.37 44.555 40.65 45.71C39.9575 46.8714 38.9433 47.8993 37.68 48.72L29.49 54.04C27.7595 55.1353 26.3742 56.5241 25.44 58.1C24.5182 59.6353 24.0273 61.3057 24 63H60C59.9761 61.3092 59.501 59.6406 58.605 58.1C57.642 56.5282 56.2435 55.1417 54.51 54.04L46.5 48.685C45.2551 47.8731 44.2563 46.8572 43.575 45.71C42.78 44.5675 42.3334 43.2981 42.27 42C42.3334 40.7019 42.78 39.4325 43.575 38.29C44.2563 37.1428 45.2551 36.1269 46.5 35.315L54.51 29.96C56.2435 28.8583 57.642 27.4718 58.605 25.9Z" fill="#E68A00"/>
<defs>
<linearGradient id="paint0_linear_706_6990" x1="74.55" y1="2.14197e-06" x2="42" y2="84" gradientUnits="userSpaceOnUse">
<stop offset="0.327919" stop-color="#FFD66D"/>
<stop offset="1" stop-color="#FFEECD"/>
</linearGradient>
</defs>
</svg>
