<svg width="34" height="36" viewBox="0 0 34 36" fill="none" xmlns="http://www.w3.org/2000/svg">
<g filter="url(#filter0_d_367_1214)">
<path d="M14.125 27.5L13.5 23.5625C13.1042 23.4167 12.6875 23.2188 12.25 22.9688C11.8125 22.7188 11.4271 22.4583 11.0938 22.1875L7.40625 23.875L4.5 18.75L7.875 16.2812C7.83333 16.0938 7.80729 15.8802 7.79688 15.6406C7.78646 15.401 7.78125 15.1875 7.78125 15C7.78125 14.8125 7.78646 14.599 7.79688 14.3594C7.80729 14.1198 7.83333 13.9062 7.875 13.7188L4.5 11.25L7.40625 6.125L11.0938 7.8125C11.4271 7.54167 11.8125 7.28125 12.25 7.03125C12.6875 6.78125 13.1042 6.59375 13.5 6.46875L14.125 2.5H19.875L20.5 6.4375C20.8958 6.58333 21.3177 6.77604 21.7656 7.01562C22.2135 7.25521 22.5938 7.52083 22.9062 7.8125L26.5938 6.125L29.5 11.25L26.125 13.6562C26.1667 13.8646 26.1927 14.0885 26.2031 14.3281C26.2135 14.5677 26.2188 14.7917 26.2188 15C26.2188 15.2083 26.2135 15.4271 26.2031 15.6562C26.1927 15.8854 26.1667 16.1042 26.125 16.3125L29.5 18.75L26.5938 23.875L22.9062 22.1875C22.5729 22.4583 22.1927 22.724 21.7656 22.9844C21.3385 23.2448 20.9167 23.4375 20.5 23.5625L19.875 27.5H14.125ZM17 19.0625C18.125 19.0625 19.0833 18.6667 19.875 17.875C20.6667 17.0833 21.0625 16.125 21.0625 15C21.0625 13.875 20.6667 12.9167 19.875 12.125C19.0833 11.3333 18.125 10.9375 17 10.9375C15.875 10.9375 14.9167 11.3333 14.125 12.125C13.3333 12.9167 12.9375 13.875 12.9375 15C12.9375 16.125 13.3333 17.0833 14.125 17.875C14.9167 18.6667 15.875 19.0625 17 19.0625ZM17 17.1875C16.3958 17.1875 15.8802 16.974 15.4531 16.5469C15.026 16.1198 14.8125 15.6042 14.8125 15C14.8125 14.3958 15.026 13.8802 15.4531 13.4531C15.8802 13.026 16.3958 12.8125 17 12.8125C17.6042 12.8125 18.1198 13.026 18.5469 13.4531C18.974 13.8802 19.1875 14.3958 19.1875 15C19.1875 15.6042 18.974 16.1198 18.5469 16.5469C18.1198 16.974 17.6042 17.1875 17 17.1875ZM15.625 25.625H18.375L18.8125 22.125C19.5 21.9583 20.151 21.6979 20.7656 21.3438C21.3802 20.9896 21.9375 20.5625 22.4375 20.0625L25.75 21.5L27 19.25L24.0625 17.0938C24.1458 16.7396 24.2135 16.3906 24.2656 16.0469C24.3177 15.7031 24.3438 15.3542 24.3438 15C24.3438 14.6458 24.3229 14.2969 24.2812 13.9531C24.2396 13.6094 24.1667 13.2604 24.0625 12.9062L27 10.75L25.75 8.5L22.4375 9.9375C21.9583 9.39583 21.4167 8.94271 20.8125 8.57812C20.2083 8.21354 19.5417 7.97917 18.8125 7.875L18.375 4.375H15.625L15.1875 7.875C14.4792 8.02083 13.8177 8.27083 13.2031 8.625C12.5885 8.97917 12.0417 9.41667 11.5625 9.9375L8.25 8.5L7 10.75L9.9375 12.9062C9.85417 13.2604 9.78646 13.6094 9.73438 13.9531C9.68229 14.2969 9.65625 14.6458 9.65625 15C9.65625 15.3542 9.68229 15.7031 9.73438 16.0469C9.78646 16.3906 9.85417 16.7396 9.9375 17.0938L7 19.25L8.25 21.5L11.5625 20.0625C12.0625 20.5625 12.6198 20.9896 13.2344 21.3438C13.849 21.6979 14.5 21.9583 15.1875 22.125L15.625 25.625Z" fill="#5A0E0E"/>
</g>
<defs>
<filter id="filter0_d_367_1214" x="-2" y="0" width="38" height="38" filterUnits="userSpaceOnUse" color-interpolation-filters="sRGB">
<feFlood flood-opacity="0" result="BackgroundImageFix"/>
<feColorMatrix in="SourceAlpha" type="matrix" values="0 0 0 0 0 0 0 0 0 0 0 0 0 0 0 0 0 0 127 0" result="hardAlpha"/>
<feOffset dy="4"/>
<feGaussianBlur stdDeviation="2"/>
<feComposite in2="hardAlpha" operator="out"/>
<feColorMatrix type="matrix" values="0 0 0 0 0 0 0 0 0 0 0 0 0 0 0 0 0 0 0.25 0"/>
<feBlend mode="normal" in2="BackgroundImageFix" result="effect1_dropShadow_367_1214"/>
<feBlend mode="normal" in="SourceGraphic" in2="effect1_dropShadow_367_1214" result="shape"/>
</filter>
</defs>
</svg>
