<svg width="39" height="41" viewBox="0 0 39 41" fill="none" xmlns="http://www.w3.org/2000/svg">
<path d="M34.8291 13.0042C35.039 13.2462 35.0661 13.6021 34.9036 13.8868C34.7546 14.1502 34.626 14.378 34.477 14.5915C32.9333 16.8408 32.0869 18.0153 30.5635 20.2789C30.1775 20.8483 29.2432 22.5922 28.8843 23.1901C28.8775 23.1973 28.8775 23.2044 28.8708 23.2115C28.5458 23.724 27.7468 23.6884 27.4895 23.1261C27.4895 23.1261 27.4895 23.119 27.4827 23.119C27.1036 22.2434 26.7989 21.3394 26.4468 20.4497C25.4786 17.994 24.1312 15.8657 21.89 14.4705C21.0775 13.9651 21.064 13.595 21.6937 12.8618C21.9307 12.5914 22.1676 12.3137 22.4249 12.0717C24.9098 9.74413 26.6228 6.86844 27.9025 3.66531C27.9838 3.46601 28.1463 3.30941 28.3223 3.15281C28.5525 2.95351 28.8843 2.98198 29.0874 3.20976C29.2567 3.39483 29.4124 3.59413 29.5072 3.81479C29.7171 4.32729 29.7713 4.90385 29.8999 5.45195C30.5906 8.43441 32.1275 10.8118 34.4635 12.6412C34.5921 12.7408 34.7072 12.869 34.8291 13.0042ZM28.6067 5.85767C27.801 7.26705 27.1239 8.71913 26.2031 9.98615C25.2619 11.2745 24.0838 12.3707 23.0072 13.5594C25.7426 15.282 27.327 18.0082 28.2817 21.3537C29.6833 18.3072 31.6197 15.887 33.7458 13.6235C30.3874 10.9328 29.5885 9.71566 28.6067 5.85767Z" fill="black"/>
<path d="M9.29631 37.5683C8.68017 35.7318 8.14527 33.8597 7.46819 32.0518C6.80464 30.3007 5.8161 28.7419 4.39423 27.5389C3.87287 27.0976 3.88642 26.699 4.31298 26.2007C6.70985 23.4603 8.55152 20.3568 9.87183 16.9045C10.014 16.5344 10.3932 15.9436 10.6572 15.9436C11.375 15.7656 11.6322 17.2391 11.6593 17.3743C12.2619 20.8479 14.3067 23.3748 16.602 25.738C17.3468 26.5068 17.4078 26.7417 16.6765 27.482C13.9208 30.258 12.0927 33.6747 10.5218 37.2693C10.0276 38.5221 9.37079 37.7889 9.29631 37.5683ZM5.22027 26.6919C6.68277 27.667 7.651 28.9696 8.35517 30.4431C9.03902 31.888 9.54006 33.4184 10.1088 34.8847C11.4224 31.7955 13.1963 28.9412 15.8911 26.7702C13.2843 24.6134 11.226 22.1505 10.5963 18.62C9.46558 21.7946 7.67131 24.4354 5.22027 26.6919Z" fill="black"/>
<path d="M27.801 29.9099C26.3047 32.0239 25.3906 34.437 24.551 36.8927C24.4969 37.0493 24.3208 37.939 23.6776 37.9319C23.4948 37.9319 23.1901 37.6258 23.075 37.3838C22.5672 36.2948 22.2489 35.0776 21.6057 34.0953C20.8474 32.9279 19.8047 31.967 18.9245 30.8922C18.7958 30.7356 18.7484 30.3797 18.8297 30.1875C18.9854 29.8316 19.263 29.5469 19.4797 29.2194C20.5833 27.5111 21.6667 25.7885 22.8042 24.1087C23.0411 23.7599 23.5083 23.3399 23.7859 23.3399C24.4766 23.3328 24.612 23.9022 24.7338 24.308C25.2891 26.1729 26.2437 27.7318 27.6318 29.0201C28.126 29.5041 27.862 29.8245 27.801 29.9099ZM20.1974 30.401C21.8088 31.604 22.9057 33.3408 23.5693 35.284C24.551 33.3906 25.5531 31.4616 26.5823 29.4686C25.201 28.4649 24.2396 26.5929 23.7995 25.212C22.5943 26.9488 21.4026 28.6642 20.1974 30.401Z" fill="black"/>
</svg>
