<svg width="70" height="70" viewBox="0 0 70 70" fill="none" xmlns="http://www.w3.org/2000/svg">
<g clip-path="url(#clip0_297_1238)">
<path d="M34.9998 3.88892C28.8466 3.88892 22.8316 5.71355 17.7154 9.13208C12.5992 12.5506 8.6116 17.4095 6.25688 23.0943C3.90215 28.7791 3.28605 35.0345 4.48648 41.0695C5.68691 47.1045 8.64995 52.6479 13.0009 56.9989C17.3519 61.3499 22.8954 64.3129 28.9303 65.5133C34.9653 66.7138 41.2207 66.0977 46.9055 63.7429C52.5903 61.3882 57.4492 57.4006 60.8677 52.2844C64.2863 47.1682 66.1109 41.1532 66.1109 35C66.1109 26.7488 62.8331 18.8356 56.9987 13.0012C51.1642 7.16668 43.251 3.88892 34.9998 3.88892ZM34.9998 62.2222C29.6157 62.2222 24.3526 60.6257 19.8759 57.6345C15.3993 54.6433 11.9101 50.3917 9.84974 45.4175C7.78936 40.4433 7.25027 34.9698 8.30064 29.6892C9.35102 24.4086 11.9437 19.5581 15.7508 15.751C19.5579 11.9439 24.4084 9.35125 29.689 8.30087C34.9696 7.2505 40.4431 7.78959 45.4173 9.84997C50.3915 11.9104 54.643 15.3995 57.6343 19.8762C60.6255 24.3528 62.222 29.616 62.222 35C62.222 42.2198 59.354 49.1439 54.2488 54.249C49.1437 59.3542 42.2196 62.2222 34.9998 62.2222Z" fill="#0E730C"/>
<path d="M54.4445 23.5278C54.0802 23.1657 53.5874 22.9624 53.0737 22.9624C52.56 22.9624 52.0672 23.1657 51.7029 23.5278L30.1195 45.0139L18.4529 33.3473C18.097 32.9631 17.6032 32.736 17.0799 32.7159C16.5566 32.6959 16.0468 32.8845 15.6626 33.2403C15.2784 33.5962 15.0513 34.09 15.0312 34.6133C15.0112 35.1366 15.1998 35.6464 15.5556 36.0306L30.1195 50.5556L54.4445 26.2889C54.6268 26.1082 54.7714 25.8931 54.8702 25.6562C54.9689 25.4192 55.0197 25.1651 55.0197 24.9084C55.0197 24.6517 54.9689 24.3975 54.8702 24.1606C54.7714 23.9237 54.6268 23.7086 54.4445 23.5278Z" fill="#0E730C"/>
</g>
<defs>
<clipPath id="clip0_297_1238">
<rect width="70" height="70" fill="white"/>
</clipPath>
</defs>
</svg>
