<svg width="92" height="92" viewBox="0 0 92 92" fill="none" xmlns="http://www.w3.org/2000/svg">
<g clip-path="url(#clip0_706_5001)">
<path d="M46.0002 5.11133C37.9132 5.11133 30.0077 7.50942 23.2836 12.0023C16.5594 16.4953 11.3186 22.8812 8.22383 30.3527C5.12904 37.8242 4.31931 46.0456 5.89701 53.9772C7.47472 61.9089 11.369 69.1946 17.0874 74.913C22.8058 80.6314 30.0915 84.5257 38.0232 86.1034C45.9549 87.6811 54.1763 86.8714 61.6477 83.7766C69.1192 80.6818 75.5052 75.441 79.9981 68.7169C84.491 61.9927 86.8891 54.0873 86.8891 46.0002C86.8891 35.1558 82.5812 24.7556 74.913 17.0874C67.2449 9.41925 56.8446 5.11133 46.0002 5.11133ZM46.0002 81.778C38.9241 81.778 32.0068 79.6797 26.1232 75.7484C20.2395 71.817 15.6538 66.2293 12.9459 59.6918C10.2379 53.1542 9.52942 45.9605 10.9099 39.0203C12.2904 32.0801 15.6979 25.7051 20.7015 20.7015C25.7051 15.6979 32.0801 12.2904 39.0203 10.9099C45.9605 9.52941 53.1543 10.2379 59.6918 12.9459C66.2293 15.6538 71.8171 20.2395 75.7484 26.1231C79.6797 32.0068 81.778 38.924 81.778 46.0002C81.778 55.4891 78.0086 64.5893 71.2989 71.2989C64.5893 78.0086 55.4891 81.778 46.0002 81.778Z" fill="#408A7E"/>
<path d="M71.5552 30.9223C71.0764 30.4464 70.4287 30.1792 69.7535 30.1792C69.0784 30.1792 68.4307 30.4464 67.9518 30.9223L39.5852 59.1612L24.2518 43.8279C23.7842 43.3229 23.1351 43.0245 22.4473 42.9981C21.7596 42.9717 21.0896 43.2197 20.5846 43.6873C20.0797 44.155 19.7812 44.8041 19.7548 45.4918C19.7285 46.1796 19.9764 46.8496 20.4441 47.3546L39.5852 66.4446L71.5552 34.5512C71.7947 34.3137 71.9848 34.031 72.1146 33.7196C72.2443 33.4082 72.3111 33.0741 72.3111 32.7368C72.3111 32.3994 72.2443 32.0654 72.1146 31.754C71.9848 31.4426 71.7947 31.1599 71.5552 30.9223Z" fill="#408A7E"/>
</g>
<defs>
<clipPath id="clip0_706_5001">
<rect width="92" height="92" fill="white"/>
</clipPath>
</defs>
</svg>
