<svg width="30" height="30" viewBox="0 0 30 30" fill="none" xmlns="http://www.w3.org/2000/svg">
<g clip-path="url(#clip0_367_1273)">
<path d="M15 1.66669C12.3629 1.66669 9.78502 2.44867 7.59236 3.91376C5.39971 5.37884 3.69074 7.46123 2.68157 9.89757C1.6724 12.3339 1.40836 15.0148 1.92283 17.6012C2.4373 20.1876 3.70718 22.5634 5.57188 24.4281C7.43658 26.2928 9.81235 27.5627 12.3988 28.0772C14.9852 28.5916 17.6661 28.3276 20.1024 27.3184C22.5388 26.3092 24.6211 24.6003 26.0862 22.4076C27.5513 20.215 28.3333 17.6371 28.3333 15C28.3333 11.4638 26.9285 8.07242 24.4281 5.57193C21.9276 3.07145 18.5362 1.66669 15 1.66669ZM23.7083 10.525L12.7583 21.4667L6.29163 15C6.07062 14.779 5.94645 14.4792 5.94645 14.1667C5.94645 13.8541 6.07062 13.5544 6.29163 13.3334C6.51265 13.1123 6.81241 12.9882 7.12497 12.9882C7.43753 12.9882 7.73729 13.1123 7.9583 13.3334L12.775 18.15L22.0583 8.87502C22.1677 8.76559 22.2977 8.67878 22.4406 8.61955C22.5836 8.56033 22.7369 8.52984 22.8916 8.52984C23.0464 8.52984 23.1996 8.56033 23.3426 8.61955C23.4856 8.67878 23.6155 8.76559 23.725 8.87502C23.8344 8.98446 23.9212 9.11437 23.9804 9.25736C24.0397 9.40034 24.0701 9.55359 24.0701 9.70835C24.0701 9.86312 24.0397 10.0164 23.9804 10.1594C23.9212 10.3023 23.8344 10.4323 23.725 10.5417L23.7083 10.525Z" fill="#408A7E"/>
</g>
<defs>
<clipPath id="clip0_367_1273">
<rect width="30" height="30" fill="white"/>
</clipPath>
</defs>
</svg>
