<svg width="30" height="30" viewBox="0 0 30 30" fill="none" xmlns="http://www.w3.org/2000/svg">
<path fill-rule="evenodd" clip-rule="evenodd" d="M15.325 27.4963C15.1084 27.5018 14.8917 27.5018 14.675 27.4963C12.2577 27.4335 9.91045 26.6712 7.91752 25.3017C5.92458 23.9322 4.37147 22.0142 3.44627 19.7801C2.81757 18.2551 2.49583 16.6212 2.49948 14.9717C2.50313 13.3223 2.83209 11.6897 3.46752 10.1676C4.09215 8.68155 4.99791 7.33013 6.13502 6.18758L6.18752 6.13508C7.32467 5.00381 8.66862 4.10162 10.1463 3.47758C11.6804 2.8336 13.3273 2.50129 14.9911 2.5C16.655 2.49872 18.3024 2.82848 19.8375 3.47008C21.3249 4.09592 22.6772 5.0034 23.82 6.14258L23.8575 6.18008C24.9988 7.32633 25.92 8.69258 26.5488 10.2088C27.202 11.787 27.5253 13.4822 27.4988 15.1901C27.4616 17.6426 26.704 20.0301 25.3202 22.0553C23.9364 24.0805 21.9876 25.6541 19.7163 26.5801C18.32 27.1473 16.8316 27.4577 15.325 27.4963ZM17.5413 19.3088L21.1338 22.9001C19.3793 24.2611 17.2218 24.9999 15.0013 24.9999C12.7807 24.9999 10.6233 24.2611 8.86877 22.9001L12.4613 19.3076C13.2311 19.7605 14.1081 19.9994 15.0013 19.9994C15.8945 19.9994 16.7714 19.7618 17.5413 19.3088ZM10.6938 17.5388L7.10002 21.1326C5.73895 19.3781 5.00024 17.2206 5.00024 15.0001C5.00024 12.7795 5.73895 10.6221 7.10002 8.86758L10.6925 12.4601C10.2396 13.2299 10.0007 14.1069 10.0007 15.0001C10.0007 15.8933 10.2396 16.7702 10.6925 17.5401M12.6025 15.7113C12.472 15.2686 12.4659 14.7985 12.585 14.3526C12.6983 13.9287 12.9217 13.5423 13.2325 13.2326C13.5421 12.9211 13.9286 12.6971 14.3528 12.5834C14.7769 12.4696 15.2237 12.4702 15.6475 12.5851C16.0575 12.6951 16.4463 12.9101 16.7675 13.2326C17.079 13.5421 17.303 13.9286 17.4167 14.3528C17.5305 14.777 17.5299 15.2237 17.415 15.6476C17.305 16.0576 17.09 16.4463 16.7675 16.7676C16.458 17.0791 16.0715 17.3031 15.6473 17.4168C15.2231 17.5305 14.7764 17.5299 14.3525 17.4151C13.9286 17.3017 13.5422 17.0784 13.2325 16.7676C12.9374 16.4738 12.7208 16.1106 12.6025 15.7113ZM17.54 10.6926C16.7702 10.2396 15.8932 10.0008 15 10.0008C14.1068 10.0008 13.2299 10.2396 12.46 10.6926L8.86752 7.10008C10.622 5.73901 12.7795 5.0003 15 5.0003C17.2206 5.0003 19.378 5.73901 21.1325 7.10008L17.54 10.6926ZM22.9 21.1326C24.2611 19.3781 24.9998 17.2206 24.9998 15.0001C24.9998 12.7795 24.2611 10.6221 22.9 8.86758L19.3075 12.4601C19.7605 13.2299 19.9993 14.1069 19.9993 15.0001C19.9993 15.8933 19.7605 16.7702 19.3075 17.5401L22.9 21.1326Z" fill="#737373"/>
</svg>
