<svg width="30" height="30" viewBox="0 0 30 30" fill="none" xmlns="http://www.w3.org/2000/svg">
<path fill-rule="evenodd" clip-rule="evenodd" d="M15.325 27.4963C15.1084 27.5018 14.8917 27.5018 14.675 27.4963C12.2577 27.4335 9.91045 26.6712 7.91752 25.3016C5.92458 23.9321 4.37147 22.0142 3.44627 19.78C2.81757 18.2551 2.49583 16.6211 2.49948 14.9717C2.50313 13.3222 2.83209 11.6897 3.46752 10.1675C4.09215 8.68149 4.99791 7.33007 6.13502 6.18752L6.18752 6.13502C7.32467 5.00375 8.66862 4.10156 10.1463 3.47752C11.6804 2.83354 13.3273 2.50123 14.9911 2.49994C16.655 2.49866 18.3024 2.82842 19.8375 3.47002C21.3249 4.09586 22.6772 5.00334 23.82 6.14252L23.8575 6.18002C24.9988 7.32627 25.92 8.69252 26.5488 10.2088C27.202 11.787 27.5253 13.4822 27.4988 15.19C27.4616 17.6426 26.704 20.03 25.3202 22.0552C23.9364 24.0805 21.9876 25.654 19.7163 26.58C18.32 27.1472 16.8316 27.4576 15.325 27.4963ZM17.5413 19.3088L21.1338 22.9C19.3793 24.2611 17.2218 24.9998 15.0013 24.9998C12.7807 24.9998 10.6233 24.2611 8.86877 22.9L12.4613 19.3075C13.2311 19.7605 14.1081 19.9993 15.0013 19.9993C15.8945 19.9993 16.7714 19.7617 17.5413 19.3088ZM10.6938 17.5388L7.10002 21.1325C5.73895 19.378 5.00024 17.2206 5.00024 15C5.00024 12.7795 5.73895 10.622 7.10002 8.86752L10.6925 12.46C10.2396 13.2299 10.0007 14.1068 10.0007 15C10.0007 15.8932 10.2396 16.7702 10.6925 17.54M12.6025 15.7113C12.472 15.2686 12.4659 14.7984 12.585 14.3525C12.6983 13.9286 12.9217 13.5422 13.2325 13.2325C13.5421 12.921 13.9286 12.697 14.3528 12.5833C14.7769 12.4696 15.2237 12.4702 15.6475 12.585C16.0575 12.695 16.4463 12.91 16.7675 13.2325C17.079 13.5421 17.303 13.9286 17.4167 14.3528C17.5305 14.7769 17.5299 15.2236 17.415 15.6475C17.305 16.0575 17.09 16.4463 16.7675 16.7675C16.458 17.079 16.0715 17.303 15.6473 17.4167C15.2231 17.5305 14.7764 17.5299 14.3525 17.415C13.9286 17.3017 13.5422 17.0783 13.2325 16.7675C12.9374 16.4737 12.7208 16.1105 12.6025 15.7113ZM17.54 10.6925C16.7702 10.2396 15.8932 10.0007 15 10.0007C14.1068 10.0007 13.2299 10.2396 12.46 10.6925L8.86752 7.10002C10.622 5.73895 12.7795 5.00024 15 5.00024C17.2206 5.00024 19.378 5.73895 21.1325 7.10002L17.54 10.6925ZM22.9 21.1325C24.2611 19.378 24.9998 17.2206 24.9998 15C24.9998 12.7795 24.2611 10.622 22.9 8.86752L19.3075 12.46C19.7605 13.2299 19.9993 14.1068 19.9993 15C19.9993 15.8932 19.7605 16.7702 19.3075 17.54L22.9 21.1325Z" fill="#752D2D"/>
</svg>
