<svg width="70" height="70" viewBox="0 0 70 70" fill="none" xmlns="http://www.w3.org/2000/svg">
<path d="M47.915 18.9C48.615 17.36 48.9825 15.6905 49 14H21C21.021 15.694 21.4025 17.3635 22.12 18.9C22.848 20.475 23.9225 21.8645 25.27 22.96L31.64 28.28C32.62 29.099 33.411 30.128 33.95 31.29C34.51 32.445 34.7935 33.7155 34.79 35C34.7935 36.2845 34.51 37.555 33.95 38.71C33.4114 39.8714 32.6226 40.8993 31.64 41.72L25.27 47.04C23.9241 48.1353 22.8466 49.5241 22.12 51.1C21.4031 52.6353 21.0213 54.3057 21 56H49C48.9814 54.3092 48.6119 52.6406 47.915 51.1C47.166 49.5282 46.0783 48.1417 44.73 47.04L38.5 41.685C37.5317 40.8731 36.7549 39.8572 36.225 38.71C35.6066 37.5675 35.2593 36.2981 35.21 35C35.2593 33.7019 35.6066 32.4325 36.225 31.29C36.7549 30.1428 37.5317 29.1269 38.5 28.315L44.73 22.96C46.0783 21.8583 47.166 20.4718 47.915 18.9Z" fill="#121412" fill-opacity="0.88"/>
</svg>
