<svg width="19" height="20" viewBox="0 0 19 20" fill="none" xmlns="http://www.w3.org/2000/svg">
<path d="M6.83967 0C6.63812 0 6.44482 0.0752549 6.3023 0.209209C6.15978 0.343164 6.07971 0.524845 6.07971 0.714286C6.07971 0.903726 6.15978 1.08541 6.3023 1.21936C6.44482 1.35332 6.63812 1.42857 6.83967 1.42857H11.3995C11.601 1.42857 11.7943 1.35332 11.9368 1.21936C12.0793 1.08541 12.1594 0.903726 12.1594 0.714286C12.1594 0.524845 12.0793 0.343164 11.9368 0.209209C11.7943 0.0752549 11.601 0 11.3995 0H6.83967ZM9.11956 6.42857C9.32112 6.42857 9.51442 6.50383 9.65694 6.63778C9.79946 6.77174 9.87953 6.95342 9.87953 7.14286V11.4286C9.87953 11.618 9.79946 11.7997 9.65694 11.9336C9.51442 12.0676 9.32112 12.1429 9.11956 12.1429C8.91801 12.1429 8.72471 12.0676 8.58219 11.9336C8.43967 11.7997 8.3596 11.618 8.3596 11.4286V7.14286C8.3596 6.95342 8.43967 6.77174 8.58219 6.63778C8.72471 6.50383 8.91801 6.42857 9.11956 6.42857ZM18.2391 11.4286C18.2391 16.1621 14.1558 20 9.11956 20C4.08328 20 0 16.1621 0 11.4286C0 6.695 4.08328 2.85714 9.11956 2.85714C14.1558 2.85714 18.2391 6.695 18.2391 11.4286ZM16.7192 11.4286C16.7192 7.48357 13.3168 4.28571 9.11956 4.28571C4.92228 4.28571 1.51993 7.48357 1.51993 11.4286C1.51993 15.3736 4.92228 18.5714 9.11956 18.5714C13.3168 18.5714 16.7192 15.3736 16.7192 11.4286ZM17.2572 3.06643C17.1871 2.99821 17.1033 2.94379 17.0106 2.90636C16.9179 2.86892 16.8181 2.84922 16.7172 2.84839C16.6163 2.84757 16.5162 2.86564 16.4228 2.90156C16.3294 2.93747 16.2446 2.99051 16.1732 3.05757C16.1019 3.12464 16.0455 3.20439 16.0072 3.29218C15.969 3.37996 15.9498 3.47402 15.9507 3.56886C15.9516 3.6637 15.9725 3.75743 16.0124 3.84457C16.0522 3.93172 16.1101 4.01054 16.1827 4.07643L17.7026 5.505C17.7732 5.57132 17.857 5.62391 17.9492 5.65979C18.0415 5.69566 18.1403 5.71411 18.2402 5.71407C18.34 5.71404 18.4388 5.69553 18.531 5.65959C18.6232 5.62366 18.707 5.57101 18.7776 5.50464C18.8481 5.43828 18.9041 5.3595 18.9422 5.27281C18.9804 5.18612 19 5.09321 19 4.99939C19 4.90557 18.9803 4.81267 18.942 4.72601C18.9038 4.63934 18.8478 4.5606 18.7772 4.49429L17.2572 3.06643Z" fill="#7D8DA6"/>
</svg>
