<svg width="14" height="12" viewBox="0 0 14 12" fill="none" xmlns="http://www.w3.org/2000/svg">
<path d="M1 4.17843C1 3.75219 1.19754 3.34341 1.54917 3.04201C1.90081 2.74061 2.37772 2.57129 2.875 2.57129H7.125C7.62228 2.57129 8.0992 2.74061 8.45083 3.04201C8.80246 3.34341 9 3.75219 9 4.17843V7.82129C9 8.24753 8.80246 8.65631 8.45083 8.95771C8.0992 9.25911 7.62228 9.42843 7.125 9.42843H2.875C2.37772 9.42843 1.90081 9.25911 1.54917 8.95771C1.19754 8.65631 1 8.24753 1 7.82129V4.17843ZM11.626 8.864L9.5 7.60572V4.39272L11.626 3.13443C12.206 2.79072 12.998 3.14729 12.998 3.75157V8.24729C12.998 8.85157 12.2065 9.20729 11.626 8.864Z" fill="#7D8DA6"/>
</svg>
