<svg width="40" height="40" viewBox="0 0 40 40" fill="none" xmlns="http://www.w3.org/2000/svg">
<mask id="mask0_1131_1015" style="mask-type:luminance" maskUnits="userSpaceOnUse" x="0" y="0" width="40" height="40">
<path d="M0 3C0 1.34315 1.34315 0 3 0H37C38.6569 0 40 1.34315 40 3V37C40 38.6569 38.6569 40 37 40H3C1.34315 40 0 38.6569 0 37V3Z" fill="white"/>
</mask>
<g mask="url(#mask0_1131_1015)">
<path fill-rule="evenodd" clip-rule="evenodd" d="M0 0V40H40V0H0Z" fill="#2E42A5"/>
<mask id="mask1_1131_1015" style="mask-type:luminance" maskUnits="userSpaceOnUse" x="0" y="0" width="40" height="40">
<path fill-rule="evenodd" clip-rule="evenodd" d="M0 0V40H40V0H0Z" fill="white"/>
</mask>
<g mask="url(#mask1_1131_1015)">
<mask id="mask2_1131_1015" style="mask-type:luminance" maskUnits="userSpaceOnUse" x="0" y="0" width="40" height="40">
<path d="M0 3C0 1.34315 1.34315 0 3 0H37C38.6569 0 40 1.34315 40 3V37C40 38.6569 38.6569 40 37 40H3C1.34315 40 0 38.6569 0 37V3Z" fill="white"/>
</mask>
<g mask="url(#mask2_1131_1015)">
<path d="M-4.45404 37.1416L4.34807 42.105L40.1996 5.39562L44.8425 -1.98018L35.4299 -3.63911L20.8069 12.18L9.03695 22.8384L-4.45404 37.1416Z" fill="white"/>
<path d="M-3.24902 40.6199L1.23525 43.5002L43.1753 -2.66466H36.8788L-3.24902 40.6199Z" fill="#F50100"/>
<path d="M44.4539 37.1416L35.6518 42.105L-0.19974 5.39562L-4.84265 -1.98018L4.56994 -3.63911L19.1929 12.18L30.9629 22.8384L44.4539 37.1416Z" fill="white"/>
<path d="M44.1536 39.6375L39.6694 42.5178L21.8109 22.7522L16.5162 20.5439L-5.28936 -1.95479H1.00708L22.8004 20.0098L28.5892 22.6579L44.1536 39.6375Z" fill="#F50100"/>
<mask id="path-9-inside-1_1131_1015" fill="white">
<path fill-rule="evenodd" clip-rule="evenodd" d="M18.2777 -3.3335C16.6209 -3.3335 15.2777 -1.99035 15.2777 -0.333494V13.3331H0.534302C-1.12255 13.3331 -2.4657 14.6763 -2.4657 16.3331V23.6664C-2.4657 25.3233 -1.12255 26.6664 0.534302 26.6664H15.2777V40.3332C15.2777 41.99 16.6209 43.3332 18.2777 43.3332H21.7222C23.379 43.3332 24.7222 41.99 24.7222 40.3332V26.6664H39.5343C41.1912 26.6664 42.5343 25.3233 42.5343 23.6664V16.3331C42.5343 14.6763 41.1912 13.3331 39.5343 13.3331H24.7222V-0.333496C24.7222 -1.99035 23.379 -3.3335 21.7222 -3.3335H18.2777Z"/>
</mask>
<path fill-rule="evenodd" clip-rule="evenodd" d="M18.2777 -3.3335C16.6209 -3.3335 15.2777 -1.99035 15.2777 -0.333494V13.3331H0.534302C-1.12255 13.3331 -2.4657 14.6763 -2.4657 16.3331V23.6664C-2.4657 25.3233 -1.12255 26.6664 0.534302 26.6664H15.2777V40.3332C15.2777 41.99 16.6209 43.3332 18.2777 43.3332H21.7222C23.379 43.3332 24.7222 41.99 24.7222 40.3332V26.6664H39.5343C41.1912 26.6664 42.5343 25.3233 42.5343 23.6664V16.3331C42.5343 14.6763 41.1912 13.3331 39.5343 13.3331H24.7222V-0.333496C24.7222 -1.99035 23.379 -3.3335 21.7222 -3.3335H18.2777Z" fill="#F50100"/>
<path d="M15.2777 13.3331V14.3331H16.2777V13.3331H15.2777ZM15.2777 26.6664H16.2777V25.6664H15.2777V26.6664ZM24.7222 26.6664V25.6664H23.7222V26.6664H24.7222ZM24.7222 13.3331H23.7222V14.3331H24.7222V13.3331ZM16.2777 -0.333494C16.2777 -1.43806 17.1731 -2.3335 18.2777 -2.3335V-4.3335C16.0686 -4.3335 14.2777 -2.54263 14.2777 -0.333494H16.2777ZM16.2777 13.3331V-0.333494H14.2777V13.3331H16.2777ZM0.534302 14.3331H15.2777V12.3331H0.534302V14.3331ZM-1.4657 16.3331C-1.4657 15.2285 -0.570269 14.3331 0.534302 14.3331V12.3331C-1.67484 12.3331 -3.4657 14.124 -3.4657 16.3331H-1.4657ZM-1.4657 23.6664V16.3331H-3.4657V23.6664H-1.4657ZM0.534302 25.6664C-0.570268 25.6664 -1.4657 24.771 -1.4657 23.6664H-3.4657C-3.4657 25.8756 -1.67484 27.6664 0.534302 27.6664V25.6664ZM15.2777 25.6664H0.534302V27.6664H15.2777V25.6664ZM16.2777 40.3332V26.6664H14.2777V40.3332H16.2777ZM18.2777 42.3332C17.1731 42.3332 16.2777 41.4377 16.2777 40.3332H14.2777C14.2777 42.5423 16.0686 44.3332 18.2777 44.3332V42.3332ZM21.7222 42.3332H18.2777V44.3332H21.7222V42.3332ZM23.7222 40.3332C23.7222 41.4377 22.8267 42.3332 21.7222 42.3332V44.3332C23.9313 44.3332 25.7222 42.5423 25.7222 40.3332H23.7222ZM23.7222 26.6664V40.3332H25.7222V26.6664H23.7222ZM39.5343 25.6664H24.7222V27.6664H39.5343V25.6664ZM41.5343 23.6664C41.5343 24.771 40.6389 25.6664 39.5343 25.6664V27.6664C41.7434 27.6664 43.5343 25.8756 43.5343 23.6664H41.5343ZM41.5343 16.3331V23.6664H43.5343V16.3331H41.5343ZM39.5343 14.3331C40.6389 14.3331 41.5343 15.2285 41.5343 16.3331H43.5343C43.5343 14.124 41.7434 12.3331 39.5343 12.3331V14.3331ZM24.7222 14.3331H39.5343V12.3331H24.7222V14.3331ZM23.7222 -0.333496V13.3331H25.7222V-0.333496H23.7222ZM21.7222 -2.3335C22.8267 -2.3335 23.7222 -1.43807 23.7222 -0.333496H25.7222C25.7222 -2.54263 23.9313 -4.3335 21.7222 -4.3335V-2.3335ZM18.2777 -2.3335H21.7222V-4.3335H18.2777V-2.3335Z" fill="white" mask="url(#path-9-inside-1_1131_1015)"/>
</g>
</g>
</g>
</svg>
