<svg width="40" height="40" viewBox="0 0 40 40" fill="none" xmlns="http://www.w3.org/2000/svg">
<g clip-path="url(#clip0_706_2854)">
<path d="M40.1338 34.1378C40.1338 35.8042 39.664 37.4025 38.8277 38.5809C37.9914 39.7593 36.8572 40.4213 35.6745 40.4213H26.7559V-0.421631H35.6745C36.8572 -0.421631 37.9914 0.240381 38.8277 1.41877C39.664 2.59716 40.1338 4.1954 40.1338 5.86189V34.1378Z" fill="#ED2939"/>
<path d="M4.45931 -0.421631C3.27663 -0.421631 2.14238 0.240381 1.3061 1.41877C0.469819 2.59716 0 4.1954 0 5.86189L0 34.1378C0 35.8042 0.469819 37.4025 1.3061 38.5809C2.14238 39.7593 3.27663 40.4213 4.45931 40.4213H13.3779V-0.421631H4.45931Z" fill="#002495"/>
<path d="M13.3779 -0.421631H26.7559V40.4213H13.3779V-0.421631Z" fill="#EEEEEE"/>
</g>
<defs>
<clipPath id="clip0_706_2854">
<rect width="40" height="40" fill="white"/>
</clipPath>
</defs>
</svg>
