<svg width="196" height="207" viewBox="0 0 196 207" fill="none" xmlns="http://www.w3.org/2000/svg">
<rect x="1" y="1" width="194" height="205" rx="5" stroke="#D9D9D9" stroke-width="2" stroke-dasharray="10 10"/>
<path d="M48.3636 116C48.2386 115.617 48.0739 115.275 47.8693 114.972C47.6686 114.665 47.428 114.403 47.1477 114.188C46.8712 113.972 46.5568 113.807 46.2045 113.693C45.8523 113.58 45.4659 113.523 45.0455 113.523C44.3561 113.523 43.7292 113.701 43.1648 114.057C42.6004 114.413 42.1515 114.938 41.8182 115.631C41.4848 116.324 41.3182 117.174 41.3182 118.182C41.3182 119.189 41.4867 120.04 41.8239 120.733C42.161 121.426 42.6174 121.951 43.1932 122.307C43.7689 122.663 44.4167 122.841 45.1364 122.841C45.803 122.841 46.3902 122.699 46.8977 122.415C47.4091 122.127 47.8068 121.722 48.0909 121.199C48.3788 120.672 48.5227 120.053 48.5227 119.341L48.9545 119.432H45.4545V118.182H49.8864V119.432C49.8864 120.39 49.6818 121.223 49.2727 121.932C48.8674 122.64 48.3068 123.189 47.5909 123.58C46.8788 123.966 46.0606 124.159 45.1364 124.159C44.1061 124.159 43.2008 123.917 42.4205 123.432C41.6439 122.947 41.0379 122.258 40.6023 121.364C40.1705 120.47 39.9545 119.409 39.9545 118.182C39.9545 117.261 40.0777 116.434 40.3239 115.699C40.5739 114.96 40.9261 114.331 41.3807 113.812C41.8352 113.294 42.3731 112.896 42.9943 112.619C43.6155 112.343 44.2992 112.205 45.0455 112.205C45.6591 112.205 46.2311 112.297 46.7614 112.483C47.2955 112.665 47.7708 112.924 48.1875 113.261C48.608 113.595 48.9583 113.994 49.2386 114.46C49.5189 114.922 49.7121 115.436 49.8182 116H48.3636ZM53.4588 112.364V124H52.1179V112.364H53.4588ZM55.9148 124V115.273H57.2557V124H55.9148ZM56.5966 113.818C56.3352 113.818 56.1098 113.729 55.9205 113.551C55.7348 113.373 55.642 113.159 55.642 112.909C55.642 112.659 55.7348 112.445 55.9205 112.267C56.1098 112.089 56.3352 112 56.5966 112C56.858 112 57.0814 112.089 57.267 112.267C57.4564 112.445 57.5511 112.659 57.5511 112.909C57.5511 113.159 57.4564 113.373 57.267 113.551C57.0814 113.729 56.858 113.818 56.5966 113.818ZM65.8935 117.227L64.6889 117.568C64.6132 117.367 64.5014 117.172 64.3537 116.983C64.2098 116.79 64.0128 116.631 63.7628 116.506C63.5128 116.381 63.1927 116.318 62.8026 116.318C62.2685 116.318 61.8234 116.441 61.4673 116.688C61.1151 116.93 60.9389 117.239 60.9389 117.614C60.9389 117.947 61.0601 118.21 61.3026 118.403C61.545 118.597 61.9238 118.758 62.4389 118.886L63.7344 119.205C64.5147 119.394 65.0961 119.684 65.4787 120.074C65.8613 120.46 66.0526 120.958 66.0526 121.568C66.0526 122.068 65.9086 122.515 65.6207 122.909C65.3366 123.303 64.9389 123.614 64.4276 123.841C63.9162 124.068 63.3215 124.182 62.6435 124.182C61.7533 124.182 61.0166 123.989 60.4332 123.602C59.8499 123.216 59.4806 122.652 59.3253 121.909L60.598 121.591C60.7192 122.061 60.9484 122.413 61.2855 122.648C61.6264 122.883 62.0715 123 62.6207 123C63.2457 123 63.742 122.867 64.1094 122.602C64.4806 122.333 64.6662 122.011 64.6662 121.636C64.6662 121.333 64.5601 121.08 64.348 120.875C64.1359 120.667 63.8101 120.511 63.3707 120.409L61.9162 120.068C61.117 119.879 60.5298 119.585 60.1548 119.188C59.7836 118.786 59.598 118.284 59.598 117.682C59.598 117.189 59.7363 116.754 60.0128 116.375C60.2931 115.996 60.6738 115.699 61.1548 115.483C61.6397 115.267 62.1889 115.159 62.8026 115.159C63.6662 115.159 64.3442 115.348 64.8366 115.727C65.3329 116.106 65.6851 116.606 65.8935 117.227ZM74.2528 117.227L73.0483 117.568C72.9725 117.367 72.8608 117.172 72.7131 116.983C72.5691 116.79 72.3722 116.631 72.1222 116.506C71.8722 116.381 71.5521 116.318 71.1619 116.318C70.6278 116.318 70.1828 116.441 69.8267 116.688C69.4744 116.93 69.2983 117.239 69.2983 117.614C69.2983 117.947 69.4195 118.21 69.6619 118.403C69.9044 118.597 70.2831 118.758 70.7983 118.886L72.0938 119.205C72.8741 119.394 73.4555 119.684 73.8381 120.074C74.2206 120.46 74.4119 120.958 74.4119 121.568C74.4119 122.068 74.268 122.515 73.9801 122.909C73.696 123.303 73.2983 123.614 72.7869 123.841C72.2756 124.068 71.6809 124.182 71.0028 124.182C70.1127 124.182 69.3759 123.989 68.7926 123.602C68.2093 123.216 67.84 122.652 67.6847 121.909L68.9574 121.591C69.0786 122.061 69.3078 122.413 69.6449 122.648C69.9858 122.883 70.4309 123 70.9801 123C71.6051 123 72.1013 122.867 72.4688 122.602C72.84 122.333 73.0256 122.011 73.0256 121.636C73.0256 121.333 72.9195 121.08 72.7074 120.875C72.4953 120.667 72.1695 120.511 71.7301 120.409L70.2756 120.068C69.4763 119.879 68.8892 119.585 68.5142 119.188C68.143 118.786 67.9574 118.284 67.9574 117.682C67.9574 117.189 68.0956 116.754 68.3722 116.375C68.6525 115.996 69.0331 115.699 69.5142 115.483C69.9991 115.267 70.5483 115.159 71.1619 115.159C72.0256 115.159 72.7036 115.348 73.196 115.727C73.6922 116.106 74.0445 116.606 74.2528 117.227ZM80.0895 124.182C79.2486 124.182 78.5232 123.996 77.9134 123.625C77.3073 123.25 76.8395 122.727 76.5099 122.057C76.1842 121.383 76.0213 120.598 76.0213 119.705C76.0213 118.811 76.1842 118.023 76.5099 117.341C76.8395 116.655 77.2978 116.121 77.8849 115.739C78.4759 115.352 79.1652 115.159 79.9531 115.159C80.4077 115.159 80.8565 115.235 81.2997 115.386C81.7429 115.538 82.1463 115.784 82.5099 116.125C82.8736 116.462 83.1634 116.909 83.3793 117.466C83.5952 118.023 83.7031 118.708 83.7031 119.523V120.091H76.9759V118.932H82.3395C82.3395 118.439 82.241 118 82.044 117.614C81.8509 117.227 81.5743 116.922 81.2145 116.699C80.8584 116.475 80.438 116.364 79.9531 116.364C79.419 116.364 78.9569 116.496 78.5668 116.761C78.1804 117.023 77.883 117.364 77.6747 117.784C77.4664 118.205 77.3622 118.655 77.3622 119.136V119.909C77.3622 120.568 77.4759 121.127 77.7031 121.585C77.9342 122.04 78.2543 122.386 78.6634 122.625C79.0724 122.86 79.5478 122.977 80.0895 122.977C80.4418 122.977 80.7599 122.928 81.044 122.83C81.3319 122.727 81.58 122.576 81.7884 122.375C81.9967 122.17 82.1577 121.917 82.2713 121.614L83.5668 121.977C83.4304 122.417 83.2012 122.803 82.8793 123.136C82.5573 123.466 82.1596 123.723 81.6861 123.909C81.2126 124.091 80.6804 124.182 80.0895 124.182ZM85.7429 124V115.273H87.0384V116.591H87.1293C87.2884 116.159 87.5762 115.809 87.9929 115.54C88.4096 115.271 88.8793 115.136 89.402 115.136C89.5005 115.136 89.6236 115.138 89.7713 115.142C89.919 115.146 90.0308 115.152 90.1065 115.159V116.523C90.0611 116.511 89.9569 116.494 89.794 116.472C89.6349 116.445 89.4664 116.432 89.2884 116.432C88.8641 116.432 88.4853 116.521 88.152 116.699C87.8224 116.873 87.5611 117.116 87.3679 117.426C87.1785 117.733 87.0838 118.083 87.0838 118.477V124H85.7429ZM99.4915 124.182C98.7642 124.182 98.1222 123.998 97.5653 123.631C97.0085 123.259 96.5729 122.737 96.2585 122.062C95.9441 121.384 95.7869 120.583 95.7869 119.659C95.7869 118.742 95.9441 117.947 96.2585 117.273C96.5729 116.598 97.0104 116.078 97.571 115.71C98.1316 115.343 98.7794 115.159 99.5142 115.159C100.082 115.159 100.531 115.254 100.861 115.443C101.194 115.629 101.448 115.841 101.622 116.08C101.8 116.314 101.938 116.508 102.037 116.659H102.151V112.364H103.491V124H102.196V122.659H102.037C101.938 122.818 101.798 123.019 101.616 123.261C101.435 123.5 101.175 123.714 100.838 123.903C100.501 124.089 100.052 124.182 99.4915 124.182ZM99.6733 122.977C100.211 122.977 100.666 122.837 101.037 122.557C101.408 122.273 101.69 121.881 101.884 121.381C102.077 120.877 102.173 120.295 102.173 119.636C102.173 118.985 102.079 118.415 101.889 117.926C101.7 117.434 101.42 117.051 101.048 116.778C100.677 116.502 100.219 116.364 99.6733 116.364C99.1051 116.364 98.6316 116.509 98.2528 116.801C97.8778 117.089 97.5956 117.481 97.4062 117.977C97.2206 118.47 97.1278 119.023 97.1278 119.636C97.1278 120.258 97.2225 120.822 97.4119 121.33C97.6051 121.833 97.8892 122.235 98.2642 122.534C98.643 122.83 99.1127 122.977 99.6733 122.977ZM109.793 124.182C108.952 124.182 108.226 123.996 107.616 123.625C107.01 123.25 106.543 122.727 106.213 122.057C105.887 121.383 105.724 120.598 105.724 119.705C105.724 118.811 105.887 118.023 106.213 117.341C106.543 116.655 107.001 116.121 107.588 115.739C108.179 115.352 108.868 115.159 109.656 115.159C110.111 115.159 110.56 115.235 111.003 115.386C111.446 115.538 111.849 115.784 112.213 116.125C112.577 116.462 112.866 116.909 113.082 117.466C113.298 118.023 113.406 118.708 113.406 119.523V120.091H106.679V118.932H112.043C112.043 118.439 111.944 118 111.747 117.614C111.554 117.227 111.277 116.922 110.918 116.699C110.562 116.475 110.141 116.364 109.656 116.364C109.122 116.364 108.66 116.496 108.27 116.761C107.884 117.023 107.586 117.364 107.378 117.784C107.17 118.205 107.065 118.655 107.065 119.136V119.909C107.065 120.568 107.179 121.127 107.406 121.585C107.637 122.04 107.957 122.386 108.366 122.625C108.776 122.86 109.251 122.977 109.793 122.977C110.145 122.977 110.463 122.928 110.747 122.83C111.035 122.727 111.283 122.576 111.491 122.375C111.7 122.17 111.861 121.917 111.974 121.614L113.27 121.977C113.134 122.417 112.904 122.803 112.582 123.136C112.26 123.466 111.863 123.723 111.389 123.909C110.916 124.091 110.384 124.182 109.793 124.182ZM108.974 114.091L110.361 111.455H111.929L110.156 114.091H108.974ZM115.446 127.273V115.273H116.741V116.659H116.901C116.999 116.508 117.135 116.314 117.31 116.08C117.488 115.841 117.741 115.629 118.071 115.443C118.404 115.254 118.855 115.159 119.423 115.159C120.158 115.159 120.806 115.343 121.366 115.71C121.927 116.078 122.365 116.598 122.679 117.273C122.993 117.947 123.151 118.742 123.151 119.659C123.151 120.583 122.993 121.384 122.679 122.062C122.365 122.737 121.929 123.259 121.372 123.631C120.815 123.998 120.173 124.182 119.446 124.182C118.885 124.182 118.437 124.089 118.099 123.903C117.762 123.714 117.503 123.5 117.321 123.261C117.139 123.019 116.999 122.818 116.901 122.659H116.787V127.273H115.446ZM116.764 119.636C116.764 120.295 116.861 120.877 117.054 121.381C117.247 121.881 117.529 122.273 117.901 122.557C118.272 122.837 118.726 122.977 119.264 122.977C119.825 122.977 120.293 122.83 120.668 122.534C121.046 122.235 121.33 121.833 121.52 121.33C121.713 120.822 121.81 120.258 121.81 119.636C121.81 119.023 121.715 118.47 121.526 117.977C121.34 117.481 121.058 117.089 120.679 116.801C120.304 116.509 119.832 116.364 119.264 116.364C118.719 116.364 118.26 116.502 117.889 116.778C117.518 117.051 117.238 117.434 117.048 117.926C116.859 118.415 116.764 118.985 116.764 119.636ZM128.741 124.182C127.954 124.182 127.262 123.994 126.668 123.619C126.077 123.244 125.615 122.72 125.281 122.045C124.952 121.371 124.787 120.583 124.787 119.682C124.787 118.773 124.952 117.979 125.281 117.301C125.615 116.623 126.077 116.097 126.668 115.722C127.262 115.347 127.954 115.159 128.741 115.159C129.529 115.159 130.219 115.347 130.81 115.722C131.404 116.097 131.866 116.623 132.196 117.301C132.529 117.979 132.696 118.773 132.696 119.682C132.696 120.583 132.529 121.371 132.196 122.045C131.866 122.72 131.404 123.244 130.81 123.619C130.219 123.994 129.529 124.182 128.741 124.182ZM128.741 122.977C129.34 122.977 129.832 122.824 130.219 122.517C130.605 122.21 130.891 121.807 131.077 121.307C131.262 120.807 131.355 120.265 131.355 119.682C131.355 119.098 131.262 118.555 131.077 118.051C130.891 117.547 130.605 117.14 130.219 116.83C129.832 116.519 129.34 116.364 128.741 116.364C128.143 116.364 127.651 116.519 127.264 116.83C126.878 117.14 126.592 117.547 126.406 118.051C126.221 118.555 126.128 119.098 126.128 119.682C126.128 120.265 126.221 120.807 126.406 121.307C126.592 121.807 126.878 122.21 127.264 122.517C127.651 122.824 128.143 122.977 128.741 122.977ZM140.925 117.227L139.72 117.568C139.644 117.367 139.533 117.172 139.385 116.983C139.241 116.79 139.044 116.631 138.794 116.506C138.544 116.381 138.224 116.318 137.834 116.318C137.3 116.318 136.855 116.441 136.499 116.688C136.146 116.93 135.97 117.239 135.97 117.614C135.97 117.947 136.091 118.21 136.334 118.403C136.576 118.597 136.955 118.758 137.47 118.886L138.766 119.205C139.546 119.394 140.127 119.684 140.51 120.074C140.893 120.46 141.084 120.958 141.084 121.568C141.084 122.068 140.94 122.515 140.652 122.909C140.368 123.303 139.97 123.614 139.459 123.841C138.947 124.068 138.353 124.182 137.675 124.182C136.785 124.182 136.048 123.989 135.464 123.602C134.881 123.216 134.512 122.652 134.357 121.909L135.629 121.591C135.75 122.061 135.98 122.413 136.317 122.648C136.658 122.883 137.103 123 137.652 123C138.277 123 138.773 122.867 139.141 122.602C139.512 122.333 139.697 122.011 139.697 121.636C139.697 121.333 139.591 121.08 139.379 120.875C139.167 120.667 138.841 120.511 138.402 120.409L136.947 120.068C136.148 119.879 135.561 119.585 135.186 119.188C134.815 118.786 134.629 118.284 134.629 117.682C134.629 117.189 134.768 116.754 135.044 116.375C135.324 115.996 135.705 115.699 136.186 115.483C136.671 115.267 137.22 115.159 137.834 115.159C138.697 115.159 139.375 115.348 139.868 115.727C140.364 116.106 140.716 116.606 140.925 117.227ZM146.761 124.182C145.92 124.182 145.195 123.996 144.585 123.625C143.979 123.25 143.511 122.727 143.182 122.057C142.856 121.383 142.693 120.598 142.693 119.705C142.693 118.811 142.856 118.023 143.182 117.341C143.511 116.655 143.97 116.121 144.557 115.739C145.148 115.352 145.837 115.159 146.625 115.159C147.08 115.159 147.528 115.235 147.972 115.386C148.415 115.538 148.818 115.784 149.182 116.125C149.545 116.462 149.835 116.909 150.051 117.466C150.267 118.023 150.375 118.708 150.375 119.523V120.091H143.648V118.932H149.011C149.011 118.439 148.913 118 148.716 117.614C148.523 117.227 148.246 116.922 147.886 116.699C147.53 116.475 147.11 116.364 146.625 116.364C146.091 116.364 145.629 116.496 145.239 116.761C144.852 117.023 144.555 117.364 144.347 117.784C144.138 118.205 144.034 118.655 144.034 119.136V119.909C144.034 120.568 144.148 121.127 144.375 121.585C144.606 122.04 144.926 122.386 145.335 122.625C145.744 122.86 146.22 122.977 146.761 122.977C147.114 122.977 147.432 122.928 147.716 122.83C148.004 122.727 148.252 122.576 148.46 122.375C148.669 122.17 148.83 121.917 148.943 121.614L150.239 121.977C150.102 122.417 149.873 122.803 149.551 123.136C149.229 123.466 148.831 123.723 148.358 123.909C147.884 124.091 147.352 124.182 146.761 124.182ZM152.415 124V115.273H153.71V116.591H153.801C153.96 116.159 154.248 115.809 154.665 115.54C155.081 115.271 155.551 115.136 156.074 115.136C156.172 115.136 156.295 115.138 156.443 115.142C156.591 115.146 156.703 115.152 156.778 115.159V116.523C156.733 116.511 156.629 116.494 156.466 116.472C156.307 116.445 156.138 116.432 155.96 116.432C155.536 116.432 155.157 116.521 154.824 116.699C154.494 116.873 154.233 117.116 154.04 117.426C153.85 117.733 153.756 118.083 153.756 118.477V124H152.415Z" fill="#3A3A3A"/>
<path d="M93.7727 150.182C92.9848 150.182 92.2936 149.994 91.6989 149.619C91.108 149.244 90.6458 148.72 90.3125 148.045C89.983 147.371 89.8182 146.583 89.8182 145.682C89.8182 144.773 89.983 143.979 90.3125 143.301C90.6458 142.623 91.108 142.097 91.6989 141.722C92.2936 141.347 92.9848 141.159 93.7727 141.159C94.5606 141.159 95.25 141.347 95.8409 141.722C96.4356 142.097 96.8977 142.623 97.2273 143.301C97.5606 143.979 97.7273 144.773 97.7273 145.682C97.7273 146.583 97.5606 147.371 97.2273 148.045C96.8977 148.72 96.4356 149.244 95.8409 149.619C95.25 149.994 94.5606 150.182 93.7727 150.182ZM93.7727 148.977C94.3712 148.977 94.8636 148.824 95.25 148.517C95.6364 148.21 95.9223 147.807 96.108 147.307C96.2936 146.807 96.3864 146.265 96.3864 145.682C96.3864 145.098 96.2936 144.555 96.108 144.051C95.9223 143.547 95.6364 143.14 95.25 142.83C94.8636 142.519 94.3712 142.364 93.7727 142.364C93.1742 142.364 92.6818 142.519 92.2955 142.83C91.9091 143.14 91.6231 143.547 91.4375 144.051C91.2519 144.555 91.1591 145.098 91.1591 145.682C91.1591 146.265 91.2519 146.807 91.4375 147.307C91.6231 147.807 91.9091 148.21 92.2955 148.517C92.6818 148.824 93.1742 148.977 93.7727 148.977ZM105.274 146.432V141.273H106.615V150H105.274V148.523H105.183C104.979 148.966 104.661 149.343 104.229 149.653C103.797 149.96 103.251 150.114 102.592 150.114C102.047 150.114 101.562 149.994 101.138 149.756C100.714 149.513 100.38 149.15 100.138 148.665C99.8954 148.176 99.7741 147.561 99.7741 146.818V141.273H101.115V146.727C101.115 147.364 101.293 147.871 101.649 148.25C102.009 148.629 102.467 148.818 103.024 148.818C103.357 148.818 103.696 148.733 104.041 148.562C104.39 148.392 104.681 148.131 104.916 147.778C105.155 147.426 105.274 146.977 105.274 146.432Z" fill="#3A3A3A"/>
<path d="M71.6705 172.381V167.273H73.375V176H71.7045V174.489H71.6136C71.4129 174.955 71.0909 175.343 70.6477 175.653C70.2083 175.96 69.661 176.114 69.0057 176.114C68.4451 176.114 67.9489 175.991 67.517 175.744C67.089 175.494 66.7519 175.125 66.5057 174.636C66.2633 174.148 66.142 173.544 66.142 172.824V167.273H67.8409V172.619C67.8409 173.214 68.0057 173.687 68.3352 174.04C68.6648 174.392 69.0928 174.568 69.6193 174.568C69.9375 174.568 70.2538 174.489 70.5682 174.33C70.8864 174.17 71.1496 173.93 71.358 173.608C71.5701 173.286 71.6742 172.877 71.6705 172.381ZM75.6577 179.273V167.273H77.3168V168.688H77.4588C77.5573 168.506 77.6993 168.295 77.8849 168.057C78.0705 167.818 78.3281 167.61 78.6577 167.432C78.9872 167.25 79.4228 167.159 79.9645 167.159C80.669 167.159 81.2978 167.337 81.8509 167.693C82.4039 168.049 82.8376 168.562 83.152 169.233C83.4702 169.903 83.6293 170.71 83.6293 171.653C83.6293 172.597 83.4721 173.405 83.1577 174.08C82.8433 174.75 82.4115 175.267 81.8622 175.631C81.313 175.991 80.6861 176.17 79.9815 176.17C79.4512 176.17 79.0175 176.081 78.6804 175.903C78.3471 175.725 78.0857 175.517 77.8963 175.278C77.7069 175.04 77.5611 174.828 77.4588 174.642H77.3565V179.273H75.6577ZM77.3224 171.636C77.3224 172.25 77.4115 172.788 77.5895 173.25C77.7675 173.712 78.0251 174.074 78.3622 174.335C78.6993 174.593 79.1122 174.722 79.6009 174.722C80.1084 174.722 80.5327 174.587 80.8736 174.318C81.2145 174.045 81.4721 173.676 81.6463 173.21C81.8243 172.744 81.9134 172.22 81.9134 171.636C81.9134 171.061 81.8262 170.544 81.652 170.085C81.4815 169.627 81.224 169.265 80.8793 169C80.5384 168.735 80.1122 168.602 79.6009 168.602C79.1084 168.602 78.6918 168.729 78.3509 168.983C78.0137 169.237 77.758 169.591 77.5838 170.045C77.4096 170.5 77.3224 171.03 77.3224 171.636ZM87.2315 164.364V176H85.5327V164.364H87.2315ZM93.1932 176.176C92.375 176.176 91.661 175.989 91.0511 175.614C90.4413 175.239 89.9678 174.714 89.6307 174.04C89.2936 173.366 89.125 172.578 89.125 171.676C89.125 170.771 89.2936 169.979 89.6307 169.301C89.9678 168.623 90.4413 168.097 91.0511 167.722C91.661 167.347 92.375 167.159 93.1932 167.159C94.0114 167.159 94.7254 167.347 95.3352 167.722C95.9451 168.097 96.4186 168.623 96.7557 169.301C97.0928 169.979 97.2614 170.771 97.2614 171.676C97.2614 172.578 97.0928 173.366 96.7557 174.04C96.4186 174.714 95.9451 175.239 95.3352 175.614C94.7254 175.989 94.0114 176.176 93.1932 176.176ZM93.1989 174.75C93.7292 174.75 94.1686 174.61 94.517 174.33C94.8655 174.049 95.1231 173.676 95.2898 173.21C95.4602 172.744 95.5455 172.231 95.5455 171.67C95.5455 171.114 95.4602 170.602 95.2898 170.136C95.1231 169.667 94.8655 169.29 94.517 169.006C94.1686 168.722 93.7292 168.58 93.1989 168.58C92.6648 168.58 92.2216 168.722 91.8693 169.006C91.5208 169.29 91.2614 169.667 91.0909 170.136C90.9242 170.602 90.8409 171.114 90.8409 171.67C90.8409 172.231 90.9242 172.744 91.0909 173.21C91.2614 173.676 91.5208 174.049 91.8693 174.33C92.2216 174.61 92.6648 174.75 93.1989 174.75ZM101.697 176.193C101.144 176.193 100.644 176.091 100.197 175.886C99.7505 175.678 99.3963 175.377 99.1349 174.983C98.8774 174.589 98.7486 174.106 98.7486 173.534C98.7486 173.042 98.8433 172.636 99.0327 172.318C99.2221 172 99.4777 171.748 99.7997 171.562C100.122 171.377 100.482 171.237 100.879 171.142C101.277 171.047 101.682 170.975 102.095 170.926C102.618 170.866 103.042 170.816 103.368 170.778C103.694 170.737 103.93 170.67 104.078 170.58C104.226 170.489 104.3 170.341 104.3 170.136V170.097C104.3 169.6 104.16 169.216 103.879 168.943C103.603 168.67 103.19 168.534 102.641 168.534C102.069 168.534 101.618 168.661 101.288 168.915C100.963 169.165 100.737 169.443 100.612 169.75L99.0156 169.386C99.205 168.856 99.4815 168.428 99.8452 168.102C100.213 167.773 100.635 167.534 101.112 167.386C101.589 167.235 102.091 167.159 102.618 167.159C102.966 167.159 103.336 167.201 103.726 167.284C104.12 167.364 104.487 167.511 104.828 167.727C105.173 167.943 105.455 168.252 105.675 168.653C105.894 169.051 106.004 169.568 106.004 170.205V176H104.345V174.807H104.277C104.167 175.027 104.002 175.242 103.783 175.455C103.563 175.667 103.281 175.843 102.936 175.983C102.591 176.123 102.179 176.193 101.697 176.193ZM102.067 174.83C102.536 174.83 102.938 174.737 103.271 174.551C103.608 174.366 103.864 174.123 104.038 173.824C104.216 173.521 104.305 173.197 104.305 172.852V171.727C104.245 171.788 104.127 171.845 103.953 171.898C103.783 171.947 103.588 171.991 103.368 172.028C103.148 172.062 102.934 172.095 102.726 172.125C102.518 172.152 102.343 172.174 102.203 172.193C101.874 172.235 101.572 172.305 101.3 172.403C101.031 172.502 100.815 172.644 100.652 172.83C100.493 173.011 100.413 173.254 100.413 173.557C100.413 173.977 100.569 174.295 100.879 174.511C101.19 174.723 101.586 174.83 102.067 174.83ZM111.534 176.17C110.83 176.17 110.201 175.991 109.648 175.631C109.098 175.267 108.667 174.75 108.352 174.08C108.042 173.405 107.886 172.597 107.886 171.653C107.886 170.71 108.044 169.903 108.358 169.233C108.676 168.562 109.112 168.049 109.665 167.693C110.218 167.337 110.845 167.159 111.545 167.159C112.087 167.159 112.523 167.25 112.852 167.432C113.186 167.61 113.443 167.818 113.625 168.057C113.811 168.295 113.955 168.506 114.057 168.688H114.159V164.364H115.858V176H114.199V174.642H114.057C113.955 174.828 113.807 175.04 113.614 175.278C113.424 175.517 113.163 175.725 112.83 175.903C112.496 176.081 112.064 176.17 111.534 176.17ZM111.909 174.722C112.398 174.722 112.811 174.593 113.148 174.335C113.489 174.074 113.746 173.712 113.92 173.25C114.098 172.788 114.188 172.25 114.188 171.636C114.188 171.03 114.1 170.5 113.926 170.045C113.752 169.591 113.496 169.237 113.159 168.983C112.822 168.729 112.405 168.602 111.909 168.602C111.398 168.602 110.972 168.735 110.631 169C110.29 169.265 110.032 169.627 109.858 170.085C109.688 170.544 109.602 171.061 109.602 171.636C109.602 172.22 109.689 172.744 109.864 173.21C110.038 173.676 110.295 174.045 110.636 174.318C110.981 174.587 111.405 174.722 111.909 174.722ZM122.044 176.176C121.184 176.176 120.444 175.992 119.822 175.625C119.205 175.254 118.728 174.733 118.391 174.062C118.057 173.388 117.891 172.598 117.891 171.693C117.891 170.799 118.057 170.011 118.391 169.33C118.728 168.648 119.197 168.116 119.8 167.733C120.406 167.35 121.114 167.159 121.925 167.159C122.417 167.159 122.894 167.241 123.357 167.403C123.819 167.566 124.233 167.822 124.601 168.17C124.968 168.519 125.258 168.972 125.47 169.528C125.682 170.081 125.788 170.754 125.788 171.545V172.148H118.851V170.875H124.124C124.124 170.428 124.033 170.032 123.851 169.688C123.669 169.339 123.413 169.064 123.084 168.864C122.758 168.663 122.375 168.562 121.936 168.562C121.459 168.562 121.042 168.68 120.686 168.915C120.334 169.146 120.061 169.449 119.868 169.824C119.679 170.195 119.584 170.598 119.584 171.034V172.028C119.584 172.612 119.686 173.108 119.891 173.517C120.099 173.926 120.389 174.239 120.76 174.455C121.131 174.667 121.565 174.773 122.061 174.773C122.383 174.773 122.677 174.727 122.942 174.636C123.207 174.542 123.436 174.402 123.629 174.216C123.822 174.03 123.97 173.801 124.072 173.528L125.68 173.818C125.552 174.292 125.321 174.706 124.987 175.062C124.658 175.415 124.243 175.689 123.743 175.886C123.247 176.08 122.68 176.176 122.044 176.176ZM127.673 176V167.273H129.315V168.659H129.406C129.565 168.189 129.846 167.82 130.247 167.551C130.652 167.278 131.111 167.142 131.622 167.142C131.728 167.142 131.853 167.146 131.997 167.153C132.145 167.161 132.26 167.17 132.344 167.182V168.807C132.276 168.788 132.154 168.767 131.98 168.744C131.806 168.718 131.632 168.705 131.457 168.705C131.056 168.705 130.698 168.79 130.384 168.96C130.073 169.127 129.827 169.36 129.645 169.659C129.463 169.955 129.372 170.292 129.372 170.67V176H127.673Z" fill="#408A7E"/>
<path d="M115.375 81H81.625C80.1332 81 78.7024 80.4206 77.6475 79.3892C76.5926 78.3578 76 76.9589 76 75.5002V31.5022C76 30.0436 76.5926 28.6447 77.6475 27.6133C78.7024 26.5819 80.1332 26.0024 81.625 26.0024H101.312C101.338 25.9992 101.363 25.9992 101.388 26.0024H101.405C101.432 26.0105 101.459 26.0161 101.487 26.0189C101.734 26.0354 101.979 26.0822 102.215 26.1592H102.333C102.385 26.1947 102.434 26.2342 102.48 26.2774C102.786 26.4106 103.065 26.5969 103.304 26.8274L120.179 43.3267C120.414 43.5598 120.605 43.8328 120.741 44.1324C120.766 44.1918 120.787 44.2524 120.806 44.3139L120.834 44.3909C120.913 44.6191 120.958 44.8583 120.972 45.1003C120.974 45.1277 120.981 45.1546 120.992 45.1801V45.1966C120.996 45.2146 120.999 45.233 121 45.2516V75.5002C121 76.9589 120.407 78.3578 119.352 79.3892C118.298 80.4206 116.867 81 115.375 81ZM105.317 59.001V72.7504H107.961V67.1406H112.067V64.8362H107.961V61.3136H112.562V59.001H105.317ZM94.9112 59.001V72.7504H98.3031C99.0056 72.7843 99.707 72.6636 100.355 72.397C101.004 72.1305 101.583 71.725 102.049 71.2104C103.019 70.0002 103.505 68.486 103.416 66.9509V64.7235C103.482 63.2045 102.982 61.7138 102.01 60.5272C101.096 59.5097 99.76 58.9487 98.3734 59.001H94.9112ZM84.4375 59.001V72.7504H87.0813V67.9133H88.8419C90.0175 67.9766 91.165 67.5503 92.0031 66.7419C92.8016 65.8682 93.2159 64.7222 93.1563 63.552C93.2084 62.3537 92.7944 61.1805 91.9975 60.2687C91.6082 59.8466 91.1281 59.514 90.5918 59.2948C90.0554 59.0756 89.476 58.9753 88.8953 59.001H84.4375ZM101.312 31.5022V45.2516H115.375L101.312 31.5022ZM98.3481 70.446H97.555V61.3136H98.5169C98.853 61.2942 99.1888 61.3576 99.4934 61.4979C99.798 61.6381 100.062 61.8509 100.261 62.1166C100.674 62.9498 100.851 63.8765 100.772 64.8005V67.1901C100.834 68.0701 100.64 68.95 100.21 69.7227C99.9829 69.9819 99.6948 70.1832 99.3704 70.3092C99.046 70.4352 98.6952 70.4821 98.3481 70.446ZM88.8953 65.6007H87.0784V61.3136H88.9206C89.1469 61.316 89.3688 61.3745 89.5655 61.4837C89.7623 61.5929 89.9275 61.7492 90.0456 61.9378C90.3494 62.4301 90.4956 62.9965 90.4675 63.5713C90.5028 64.1061 90.3575 64.6374 90.0541 65.0837C89.9162 65.2529 89.7393 65.388 89.538 65.4778C89.3366 65.5676 89.1164 65.6097 88.8953 65.6007Z" fill="#C8C8C8"/>
</svg>
